<svg width="671" height="280" viewBox="0 0 671 280" fill="none" xmlns="http://www.w3.org/2000/svg">
<g filter="url(#filter0_d)">
<g filter="url(#filter1_b)">
<path d="M639 47H32V246H304.888H366.112H639V47Z" fill="url(#paint0_linear)"/>
</g>
<path d="M32 45.5H30.5V47V241.258C30.5 244.705 33.2947 247.5 36.7422 247.5H634.258C637.705 247.5 640.5 244.705 640.5 241.258V47V45.5H639H32Z" stroke="#4E53E9" stroke-width="3"/>
<g filter="url(#filter2_b)">
<path d="M32 34.7422C32 32.1231 34.1231 30 36.7422 30H634.258C636.877 30 639 32.1231 639 34.7422V49H32V34.7422Z" fill="#6684EF"/>
<path d="M639 50.5H640.5V49V34.7422C640.5 31.2947 637.705 28.5 634.258 28.5H36.7422C33.2947 28.5 30.5 31.2947 30.5 34.7422V49V50.5H32H639Z" stroke="#4E53E9" stroke-width="3"/>
</g>
<circle cx="43.9844" cy="39.5" r="2.26289" fill="#252BE7" stroke="#252BE7" stroke-width="0.474219"/>
<circle cx="54.4172" cy="39.5" r="2.26289" fill="#252BE7" stroke="#252BE7" stroke-width="0.474219"/>
<circle cx="64.85" cy="39.5" r="2.26289" fill="#252BE7" stroke="#252BE7" stroke-width="0.474219"/>
<path d="M67.56 145L62.38 131H64.64L68.84 142.8L73.06 131H75.3L70.12 145H67.56ZM78.7119 133.2C78.3119 133.2 77.9785 133.08 77.7119 132.84C77.4585 132.587 77.3319 132.273 77.3319 131.9C77.3319 131.527 77.4585 131.22 77.7119 130.98C77.9785 130.727 78.3119 130.6 78.7119 130.6C79.1119 130.6 79.4385 130.727 79.6919 130.98C79.9585 131.22 80.0919 131.527 80.0919 131.9C80.0919 132.273 79.9585 132.587 79.6919 132.84C79.4385 133.08 79.1119 133.2 78.7119 133.2ZM77.6519 145V135.08H79.7719V145H77.6519ZM87.0305 145.24C85.7771 145.24 84.7438 144.933 83.9305 144.32C83.1171 143.707 82.6505 142.893 82.5305 141.88H84.6705C84.7771 142.333 85.0305 142.727 85.4305 143.06C85.8305 143.38 86.3571 143.54 87.0105 143.54C87.6505 143.54 88.1171 143.407 88.4105 143.14C88.7038 142.873 88.8505 142.567 88.8505 142.22C88.8505 141.713 88.6438 141.373 88.2305 141.2C87.8305 141.013 87.2705 140.847 86.5505 140.7C85.9905 140.58 85.4305 140.42 84.8705 140.22C84.3238 140.02 83.8638 139.74 83.4905 139.38C83.1305 139.007 82.9505 138.507 82.9505 137.88C82.9505 137.013 83.2838 136.293 83.9505 135.72C84.6171 135.133 85.5505 134.84 86.7505 134.84C87.8571 134.84 88.7505 135.107 89.4305 135.64C90.1238 136.173 90.5305 136.927 90.6505 137.9H88.6105C88.5438 137.473 88.3438 137.14 88.0105 136.9C87.6905 136.66 87.2571 136.54 86.7105 136.54C86.1771 136.54 85.7638 136.653 85.4705 136.88C85.1771 137.093 85.0305 137.373 85.0305 137.72C85.0305 138.067 85.2305 138.34 85.6305 138.54C86.0438 138.74 86.5838 138.92 87.2505 139.08C87.9171 139.227 88.5305 139.4 89.0905 139.6C89.6638 139.787 90.1238 140.067 90.4705 140.44C90.8171 140.813 90.9905 141.36 90.9905 142.08C91.0038 142.987 90.6505 143.74 89.9305 144.34C89.2238 144.94 88.2571 145.24 87.0305 145.24ZM97.4648 145.24C96.2648 145.24 95.3182 144.867 94.6248 144.12C93.9448 143.373 93.6048 142.26 93.6048 140.78V135.08H95.7248V140.56C95.7248 142.48 96.5115 143.44 98.0848 143.44C98.8715 143.44 99.5182 143.16 100.025 142.6C100.532 142.04 100.785 141.24 100.785 140.2V135.08H102.905V145H101.025L100.865 143.26C100.558 143.873 100.105 144.36 99.5048 144.72C98.9182 145.067 98.2382 145.24 97.4648 145.24ZM109.462 145.24C108.622 145.24 107.928 145.1 107.382 144.82C106.835 144.54 106.428 144.173 106.162 143.72C105.895 143.253 105.762 142.747 105.762 142.2C105.762 141.24 106.135 140.48 106.882 139.92C107.628 139.36 108.695 139.08 110.082 139.08H112.682V138.9C112.682 138.127 112.468 137.547 112.042 137.16C111.628 136.773 111.088 136.58 110.422 136.58C109.835 136.58 109.322 136.727 108.882 137.02C108.455 137.3 108.195 137.72 108.102 138.28H105.982C106.048 137.56 106.288 136.947 106.702 136.44C107.128 135.92 107.662 135.527 108.302 135.26C108.955 134.98 109.668 134.84 110.442 134.84C111.828 134.84 112.902 135.207 113.662 135.94C114.422 136.66 114.802 137.647 114.802 138.9V145H112.962L112.782 143.3C112.502 143.847 112.095 144.307 111.562 144.68C111.028 145.053 110.328 145.24 109.462 145.24ZM109.882 143.52C110.455 143.52 110.935 143.387 111.322 143.12C111.722 142.84 112.028 142.473 112.242 142.02C112.468 141.567 112.608 141.067 112.662 140.52H110.302C109.462 140.52 108.862 140.667 108.502 140.96C108.155 141.253 107.982 141.62 107.982 142.06C107.982 142.513 108.148 142.873 108.482 143.14C108.828 143.393 109.295 143.52 109.882 143.52ZM117.774 145V130.6H119.894V145H117.774ZM124.278 133.2C123.878 133.2 123.545 133.08 123.278 132.84C123.025 132.587 122.898 132.273 122.898 131.9C122.898 131.527 123.025 131.22 123.278 130.98C123.545 130.727 123.878 130.6 124.278 130.6C124.678 130.6 125.005 130.727 125.258 130.98C125.525 131.22 125.658 131.527 125.658 131.9C125.658 132.273 125.525 132.587 125.258 132.84C125.005 133.08 124.678 133.2 124.278 133.2ZM123.218 145V135.08H125.338V145H123.218ZM127.977 145V143.28L133.277 136.84H128.057V135.08H135.677V136.8L130.337 143.24H135.777V145H127.977ZM139.653 133.2C139.253 133.2 138.92 133.08 138.653 132.84C138.4 132.587 138.273 132.273 138.273 131.9C138.273 131.527 138.4 131.22 138.653 130.98C138.92 130.727 139.253 130.6 139.653 130.6C140.053 130.6 140.38 130.727 140.633 130.98C140.9 131.22 141.033 131.527 141.033 131.9C141.033 132.273 140.9 132.587 140.633 132.84C140.38 133.08 140.053 133.2 139.653 133.2ZM138.593 145V135.08H140.713V145H138.593ZM144.012 145V135.08H145.892L146.052 136.82C146.359 136.207 146.805 135.727 147.392 135.38C147.992 135.02 148.679 134.84 149.452 134.84C150.652 134.84 151.592 135.213 152.272 135.96C152.965 136.707 153.312 137.82 153.312 139.3V145H151.212V139.52C151.212 137.6 150.425 136.64 148.852 136.64C148.065 136.64 147.412 136.92 146.892 137.48C146.385 138.04 146.132 138.84 146.132 139.88V145H144.012ZM160.369 141.96C159.849 141.96 159.369 141.9 158.929 141.78L158.069 142.62C158.215 142.713 158.395 142.793 158.609 142.86C158.822 142.927 159.122 142.987 159.509 143.04C159.895 143.093 160.422 143.147 161.089 143.2C162.409 143.32 163.362 143.64 163.949 144.16C164.535 144.667 164.829 145.347 164.829 146.2C164.829 146.787 164.669 147.34 164.349 147.86C164.042 148.393 163.555 148.82 162.889 149.14C162.235 149.473 161.395 149.64 160.369 149.64C158.982 149.64 157.855 149.373 156.989 148.84C156.135 148.32 155.709 147.527 155.709 146.46C155.709 146.047 155.815 145.633 156.029 145.22C156.255 144.82 156.609 144.44 157.089 144.08C156.809 143.96 156.562 143.833 156.349 143.7C156.149 143.553 155.969 143.407 155.809 143.26V142.78L157.529 141.02C156.755 140.353 156.369 139.48 156.369 138.4C156.369 137.747 156.522 137.153 156.829 136.62C157.149 136.073 157.609 135.64 158.209 135.32C158.809 135 159.529 134.84 160.369 134.84C160.929 134.84 161.449 134.92 161.929 135.08H165.629V136.48L163.869 136.58C164.189 137.127 164.349 137.733 164.349 138.4C164.349 139.067 164.189 139.667 163.869 140.2C163.562 140.733 163.109 141.16 162.509 141.48C161.922 141.8 161.209 141.96 160.369 141.96ZM160.369 140.3C160.982 140.3 161.475 140.14 161.849 139.82C162.235 139.487 162.429 139.02 162.429 138.42C162.429 137.807 162.235 137.34 161.849 137.02C161.475 136.7 160.982 136.54 160.369 136.54C159.742 136.54 159.235 136.7 158.849 137.02C158.475 137.34 158.289 137.807 158.289 138.42C158.289 139.02 158.475 139.487 158.849 139.82C159.235 140.14 159.742 140.3 160.369 140.3ZM157.709 146.26C157.709 146.833 157.962 147.26 158.469 147.54C158.975 147.833 159.609 147.98 160.369 147.98C161.102 147.98 161.695 147.82 162.149 147.5C162.602 147.193 162.829 146.78 162.829 146.26C162.829 145.873 162.675 145.54 162.369 145.26C162.062 144.993 161.482 144.827 160.629 144.76C159.989 144.72 159.422 144.66 158.929 144.58C158.462 144.833 158.142 145.107 157.969 145.4C157.795 145.693 157.709 145.98 157.709 146.26ZM174.719 149.4L177.099 144.18H176.519L172.599 135.08H174.899L177.939 142.42L181.119 135.08H183.359L176.959 149.4H174.719ZM189.343 145.24C188.397 145.24 187.543 145.027 186.783 144.6C186.037 144.16 185.443 143.553 185.003 142.78C184.563 141.993 184.343 141.08 184.343 140.04C184.343 139 184.563 138.093 185.003 137.32C185.457 136.533 186.063 135.927 186.823 135.5C187.583 135.06 188.43 134.84 189.363 134.84C190.31 134.84 191.157 135.06 191.903 135.5C192.663 135.927 193.263 136.533 193.703 137.32C194.157 138.093 194.383 139 194.383 140.04C194.383 141.08 194.157 141.993 193.703 142.78C193.263 143.553 192.663 144.16 191.903 144.6C191.143 145.027 190.29 145.24 189.343 145.24ZM189.343 143.42C189.85 143.42 190.317 143.293 190.743 143.04C191.183 142.787 191.537 142.413 191.803 141.92C192.07 141.413 192.203 140.787 192.203 140.04C192.203 139.293 192.07 138.673 191.803 138.18C191.55 137.673 191.203 137.293 190.763 137.04C190.337 136.787 189.87 136.66 189.363 136.66C188.857 136.66 188.383 136.787 187.943 137.04C187.517 137.293 187.17 137.673 186.903 138.18C186.637 138.673 186.503 139.293 186.503 140.04C186.503 140.787 186.637 141.413 186.903 141.92C187.17 142.413 187.517 142.787 187.943 143.04C188.37 143.293 188.837 143.42 189.343 143.42ZM200.836 145.24C199.636 145.24 198.689 144.867 197.996 144.12C197.316 143.373 196.976 142.26 196.976 140.78V135.08H199.096V140.56C199.096 142.48 199.883 143.44 201.456 143.44C202.243 143.44 202.889 143.16 203.396 142.6C203.903 142.04 204.156 141.24 204.156 140.2V135.08H206.276V145H204.396L204.236 143.26C203.929 143.873 203.476 144.36 202.876 144.72C202.289 145.067 201.609 145.24 200.836 145.24ZM209.473 145V135.08H211.373L211.553 136.96C211.899 136.307 212.379 135.793 212.993 135.42C213.619 135.033 214.373 134.84 215.253 134.84V137.06H214.673C214.086 137.06 213.559 137.16 213.093 137.36C212.639 137.547 212.273 137.873 211.993 138.34C211.726 138.793 211.593 139.427 211.593 140.24V145H209.473ZM227.75 145.24C226.803 145.24 225.95 145.027 225.19 144.6C224.443 144.16 223.85 143.553 223.41 142.78C222.97 141.993 222.75 141.08 222.75 140.04C222.75 139 222.97 138.093 223.41 137.32C223.863 136.533 224.47 135.927 225.23 135.5C225.99 135.06 226.836 134.84 227.77 134.84C228.716 134.84 229.563 135.06 230.31 135.5C231.07 135.927 231.67 136.533 232.11 137.32C232.563 138.093 232.79 139 232.79 140.04C232.79 141.08 232.563 141.993 232.11 142.78C231.67 143.553 231.07 144.16 230.31 144.6C229.55 145.027 228.696 145.24 227.75 145.24ZM227.75 143.42C228.256 143.42 228.723 143.293 229.15 143.04C229.59 142.787 229.943 142.413 230.21 141.92C230.476 141.413 230.61 140.787 230.61 140.04C230.61 139.293 230.476 138.673 230.21 138.18C229.956 137.673 229.61 137.293 229.17 137.04C228.743 136.787 228.276 136.66 227.77 136.66C227.263 136.66 226.79 136.787 226.35 137.04C225.923 137.293 225.576 137.673 225.31 138.18C225.043 138.673 224.91 139.293 224.91 140.04C224.91 140.787 225.043 141.413 225.31 141.92C225.576 142.413 225.923 142.787 226.35 143.04C226.776 143.293 227.243 143.42 227.75 143.42ZM235.582 145V135.08H237.462L237.622 136.82C237.929 136.207 238.376 135.727 238.962 135.38C239.562 135.02 240.249 134.84 241.022 134.84C242.222 134.84 243.162 135.213 243.842 135.96C244.536 136.707 244.882 137.82 244.882 139.3V145H242.782V139.52C242.782 137.6 241.996 136.64 240.422 136.64C239.636 136.64 238.982 136.92 238.462 137.48C237.956 138.04 237.702 138.84 237.702 139.88V145H235.582ZM247.879 145V130.6H249.999V145H247.879ZM254.384 133.2C253.984 133.2 253.65 133.08 253.384 132.84C253.13 132.587 253.004 132.273 253.004 131.9C253.004 131.527 253.13 131.22 253.384 130.98C253.65 130.727 253.984 130.6 254.384 130.6C254.784 130.6 255.11 130.727 255.364 130.98C255.63 131.22 255.764 131.527 255.764 131.9C255.764 132.273 255.63 132.587 255.364 132.84C255.11 133.08 254.784 133.2 254.384 133.2ZM253.324 145V135.08H255.444V145H253.324ZM258.742 145V135.08H260.622L260.782 136.82C261.089 136.207 261.536 135.727 262.122 135.38C262.722 135.02 263.409 134.84 264.182 134.84C265.382 134.84 266.322 135.213 267.002 135.96C267.696 136.707 268.042 137.82 268.042 139.3V145H265.942V139.52C265.942 137.6 265.156 136.64 263.582 136.64C262.796 136.64 262.142 136.92 261.622 137.48C261.116 138.04 260.862 138.84 260.862 139.88V145H258.742ZM275.679 145.24C274.706 145.24 273.839 145.027 273.079 144.6C272.333 144.16 271.746 143.553 271.319 142.78C270.893 142.007 270.679 141.107 270.679 140.08C270.679 139.04 270.886 138.127 271.299 137.34C271.726 136.553 272.313 135.94 273.059 135.5C273.819 135.06 274.699 134.84 275.699 134.84C276.673 134.84 277.519 135.06 278.239 135.5C278.959 135.927 279.519 136.5 279.919 137.22C280.319 137.94 280.519 138.733 280.519 139.6C280.519 139.733 280.513 139.88 280.499 140.04C280.499 140.187 280.493 140.353 280.479 140.54H272.759C272.826 141.5 273.139 142.233 273.699 142.74C274.273 143.233 274.933 143.48 275.679 143.48C276.279 143.48 276.779 143.347 277.179 143.08C277.593 142.8 277.899 142.427 278.099 141.96H280.219C279.953 142.893 279.419 143.673 278.619 144.3C277.833 144.927 276.853 145.24 275.679 145.24ZM275.679 136.58C274.973 136.58 274.346 136.793 273.799 137.22C273.253 137.633 272.919 138.26 272.799 139.1H278.399C278.359 138.327 278.086 137.713 277.579 137.26C277.073 136.807 276.439 136.58 275.679 136.58ZM288.758 149.4V135.08H290.658L290.878 136.62C291.198 136.153 291.638 135.74 292.198 135.38C292.758 135.02 293.478 134.84 294.358 134.84C295.318 134.84 296.165 135.067 296.898 135.52C297.631 135.973 298.205 136.593 298.618 137.38C299.045 138.167 299.258 139.06 299.258 140.06C299.258 141.06 299.045 141.953 298.618 142.74C298.205 143.513 297.631 144.127 296.898 144.58C296.165 145.02 295.311 145.24 294.338 145.24C293.565 145.24 292.878 145.087 292.278 144.78C291.691 144.473 291.225 144.04 290.878 143.48V149.4H288.758ZM293.978 143.4C294.885 143.4 295.631 143.093 296.218 142.48C296.805 141.853 297.098 141.04 297.098 140.04C297.098 139.387 296.965 138.807 296.698 138.3C296.431 137.793 296.065 137.4 295.598 137.12C295.131 136.827 294.591 136.68 293.978 136.68C293.071 136.68 292.325 136.993 291.738 137.62C291.165 138.247 290.878 139.053 290.878 140.04C290.878 141.04 291.165 141.853 291.738 142.48C292.325 143.093 293.071 143.4 293.978 143.4ZM302.051 145V135.08H303.951L304.131 136.96C304.478 136.307 304.958 135.793 305.571 135.42C306.198 135.033 306.951 134.84 307.831 134.84V137.06H307.251C306.664 137.06 306.138 137.16 305.671 137.36C305.218 137.547 304.851 137.873 304.571 138.34C304.304 138.793 304.171 139.427 304.171 140.24V145H302.051ZM314.515 145.24C313.542 145.24 312.675 145.027 311.915 144.6C311.168 144.16 310.582 143.553 310.155 142.78C309.728 142.007 309.515 141.107 309.515 140.08C309.515 139.04 309.722 138.127 310.135 137.34C310.562 136.553 311.148 135.94 311.895 135.5C312.655 135.06 313.535 134.84 314.535 134.84C315.508 134.84 316.355 135.06 317.075 135.5C317.795 135.927 318.355 136.5 318.755 137.22C319.155 137.94 319.355 138.733 319.355 139.6C319.355 139.733 319.348 139.88 319.335 140.04C319.335 140.187 319.328 140.353 319.315 140.54H311.595C311.662 141.5 311.975 142.233 312.535 142.74C313.108 143.233 313.768 143.48 314.515 143.48C315.115 143.48 315.615 143.347 316.015 143.08C316.428 142.8 316.735 142.427 316.935 141.96H319.055C318.788 142.893 318.255 143.673 317.455 144.3C316.668 144.927 315.688 145.24 314.515 145.24ZM314.515 136.58C313.808 136.58 313.182 136.793 312.635 137.22C312.088 137.633 311.755 138.26 311.635 139.1H317.235C317.195 138.327 316.922 137.713 316.415 137.26C315.908 136.807 315.275 136.58 314.515 136.58ZM326.015 145.24C324.762 145.24 323.728 144.933 322.915 144.32C322.102 143.707 321.635 142.893 321.515 141.88H323.655C323.762 142.333 324.015 142.727 324.415 143.06C324.815 143.38 325.342 143.54 325.995 143.54C326.635 143.54 327.102 143.407 327.395 143.14C327.688 142.873 327.835 142.567 327.835 142.22C327.835 141.713 327.628 141.373 327.215 141.2C326.815 141.013 326.255 140.847 325.535 140.7C324.975 140.58 324.415 140.42 323.855 140.22C323.308 140.02 322.848 139.74 322.475 139.38C322.115 139.007 321.935 138.507 321.935 137.88C321.935 137.013 322.268 136.293 322.935 135.72C323.602 135.133 324.535 134.84 325.735 134.84C326.842 134.84 327.735 135.107 328.415 135.64C329.108 136.173 329.515 136.927 329.635 137.9H327.595C327.528 137.473 327.328 137.14 326.995 136.9C326.675 136.66 326.242 136.54 325.695 136.54C325.162 136.54 324.748 136.653 324.455 136.88C324.162 137.093 324.015 137.373 324.015 137.72C324.015 138.067 324.215 138.34 324.615 138.54C325.028 138.74 325.568 138.92 326.235 139.08C326.902 139.227 327.515 139.4 328.075 139.6C328.648 139.787 329.108 140.067 329.455 140.44C329.802 140.813 329.975 141.36 329.975 142.08C329.988 142.987 329.635 143.74 328.915 144.34C328.208 144.94 327.242 145.24 326.015 145.24ZM337.429 145.24C336.456 145.24 335.589 145.027 334.829 144.6C334.083 144.16 333.496 143.553 333.069 142.78C332.643 142.007 332.429 141.107 332.429 140.08C332.429 139.04 332.636 138.127 333.049 137.34C333.476 136.553 334.063 135.94 334.809 135.5C335.569 135.06 336.449 134.84 337.449 134.84C338.423 134.84 339.269 135.06 339.989 135.5C340.709 135.927 341.269 136.5 341.669 137.22C342.069 137.94 342.269 138.733 342.269 139.6C342.269 139.733 342.263 139.88 342.249 140.04C342.249 140.187 342.243 140.353 342.229 140.54H334.509C334.576 141.5 334.889 142.233 335.449 142.74C336.023 143.233 336.683 143.48 337.429 143.48C338.029 143.48 338.529 143.347 338.929 143.08C339.343 142.8 339.649 142.427 339.849 141.96H341.969C341.703 142.893 341.169 143.673 340.369 144.3C339.583 144.927 338.603 145.24 337.429 145.24ZM337.429 136.58C336.723 136.58 336.096 136.793 335.549 137.22C335.003 137.633 334.669 138.26 334.549 139.1H340.149C340.109 138.327 339.836 137.713 339.329 137.26C338.823 136.807 338.189 136.58 337.429 136.58ZM344.969 145V135.08H346.849L347.009 136.82C347.316 136.207 347.762 135.727 348.349 135.38C348.949 135.02 349.636 134.84 350.409 134.84C351.609 134.84 352.549 135.213 353.229 135.96C353.922 136.707 354.269 137.82 354.269 139.3V145H352.169V139.52C352.169 137.6 351.382 136.64 349.809 136.64C349.022 136.64 348.369 136.92 347.849 137.48C347.342 138.04 347.089 138.84 347.089 139.88V145H344.969ZM361.966 145.24C360.992 145.24 360.119 145.02 359.346 144.58C358.586 144.14 357.986 143.533 357.546 142.76C357.119 141.973 356.906 141.067 356.906 140.04C356.906 139.013 357.119 138.113 357.546 137.34C357.986 136.553 358.586 135.94 359.346 135.5C360.119 135.06 360.992 134.84 361.966 134.84C363.192 134.84 364.219 135.16 365.046 135.8C365.886 136.44 366.426 137.307 366.666 138.4H364.446C364.312 137.853 364.019 137.427 363.566 137.12C363.112 136.813 362.579 136.66 361.966 136.66C361.446 136.66 360.966 136.793 360.526 137.06C360.086 137.313 359.732 137.693 359.466 138.2C359.199 138.693 359.066 139.307 359.066 140.04C359.066 140.773 359.199 141.393 359.466 141.9C359.732 142.393 360.086 142.773 360.526 143.04C360.966 143.307 361.446 143.44 361.966 143.44C362.579 143.44 363.112 143.287 363.566 142.98C364.019 142.673 364.312 142.24 364.446 141.68H366.666C366.439 142.747 365.906 143.607 365.066 144.26C364.226 144.913 363.192 145.24 361.966 145.24ZM374.105 145.24C373.132 145.24 372.265 145.027 371.505 144.6C370.758 144.16 370.172 143.553 369.745 142.78C369.318 142.007 369.105 141.107 369.105 140.08C369.105 139.04 369.312 138.127 369.725 137.34C370.152 136.553 370.738 135.94 371.485 135.5C372.245 135.06 373.125 134.84 374.125 134.84C375.098 134.84 375.945 135.06 376.665 135.5C377.385 135.927 377.945 136.5 378.345 137.22C378.745 137.94 378.945 138.733 378.945 139.6C378.945 139.733 378.938 139.88 378.925 140.04C378.925 140.187 378.918 140.353 378.905 140.54H371.185C371.252 141.5 371.565 142.233 372.125 142.74C372.698 143.233 373.358 143.48 374.105 143.48C374.705 143.48 375.205 143.347 375.605 143.08C376.018 142.8 376.325 142.427 376.525 141.96H378.645C378.378 142.893 377.845 143.673 377.045 144.3C376.258 144.927 375.278 145.24 374.105 145.24ZM374.105 136.58C373.398 136.58 372.772 136.793 372.225 137.22C371.678 137.633 371.345 138.26 371.225 139.1H376.825C376.785 138.327 376.512 137.713 376.005 137.26C375.498 136.807 374.865 136.58 374.105 136.58ZM390.544 145.24C389.704 145.24 389.01 145.1 388.464 144.82C387.917 144.54 387.51 144.173 387.244 143.72C386.977 143.253 386.844 142.747 386.844 142.2C386.844 141.24 387.217 140.48 387.964 139.92C388.71 139.36 389.777 139.08 391.164 139.08H393.764V138.9C393.764 138.127 393.55 137.547 393.124 137.16C392.71 136.773 392.17 136.58 391.504 136.58C390.917 136.58 390.404 136.727 389.964 137.02C389.537 137.3 389.277 137.72 389.184 138.28H387.064C387.13 137.56 387.37 136.947 387.784 136.44C388.21 135.92 388.744 135.527 389.384 135.26C390.037 134.98 390.75 134.84 391.524 134.84C392.91 134.84 393.984 135.207 394.744 135.94C395.504 136.66 395.884 137.647 395.884 138.9V145H394.044L393.864 143.3C393.584 143.847 393.177 144.307 392.644 144.68C392.11 145.053 391.41 145.24 390.544 145.24ZM390.964 143.52C391.537 143.52 392.017 143.387 392.404 143.12C392.804 142.84 393.11 142.473 393.324 142.02C393.55 141.567 393.69 141.067 393.744 140.52H391.384C390.544 140.52 389.944 140.667 389.584 140.96C389.237 141.253 389.064 141.62 389.064 142.06C389.064 142.513 389.23 142.873 389.564 143.14C389.91 143.393 390.377 143.52 390.964 143.52ZM398.856 145V135.08H400.736L400.896 136.82C401.202 136.207 401.649 135.727 402.236 135.38C402.836 135.02 403.522 134.84 404.296 134.84C405.496 134.84 406.436 135.213 407.116 135.96C407.809 136.707 408.156 137.82 408.156 139.3V145H406.056V139.52C406.056 137.6 405.269 136.64 403.696 136.64C402.909 136.64 402.256 136.92 401.736 137.48C401.229 138.04 400.976 138.84 400.976 139.88V145H398.856ZM415.673 145.24C414.713 145.24 413.866 145.013 413.133 144.56C412.399 144.107 411.826 143.487 411.413 142.7C410.999 141.913 410.793 141.02 410.793 140.02C410.793 139.02 410.999 138.133 411.413 137.36C411.826 136.573 412.399 135.96 413.133 135.52C413.879 135.067 414.733 134.84 415.692 134.84C416.479 134.84 417.166 134.993 417.753 135.3C418.353 135.607 418.819 136.04 419.153 136.6V130.6H421.273V145H419.373L419.153 143.46C418.833 143.927 418.393 144.34 417.833 144.7C417.273 145.06 416.553 145.24 415.673 145.24ZM416.053 143.4C416.959 143.4 417.699 143.087 418.273 142.46C418.859 141.833 419.153 141.027 419.153 140.04C419.153 139.04 418.859 138.233 418.273 137.62C417.699 136.993 416.959 136.68 416.053 136.68C415.146 136.68 414.399 136.993 413.813 137.62C413.226 138.233 412.933 139.04 412.933 140.04C412.933 140.693 413.066 141.273 413.333 141.78C413.599 142.287 413.966 142.687 414.433 142.98C414.913 143.26 415.453 143.4 416.053 143.4ZM434.505 145.24C433.545 145.24 432.698 145.013 431.965 144.56C431.231 144.107 430.658 143.487 430.245 142.7C429.831 141.913 429.625 141.02 429.625 140.02C429.625 139.02 429.831 138.133 430.245 137.36C430.658 136.573 431.231 135.96 431.965 135.52C432.711 135.067 433.565 134.84 434.525 134.84C435.311 134.84 435.998 134.993 436.585 135.3C437.185 135.607 437.651 136.04 437.985 136.6V130.6H440.105V145H438.205L437.985 143.46C437.665 143.927 437.225 144.34 436.665 144.7C436.105 145.06 435.385 145.24 434.505 145.24ZM434.885 143.4C435.791 143.4 436.531 143.087 437.105 142.46C437.691 141.833 437.985 141.027 437.985 140.04C437.985 139.04 437.691 138.233 437.105 137.62C436.531 136.993 435.791 136.68 434.885 136.68C433.978 136.68 433.231 136.993 432.645 137.62C432.058 138.233 431.765 139.04 431.765 140.04C431.765 140.693 431.898 141.273 432.165 141.78C432.431 142.287 432.798 142.687 433.265 142.98C433.745 143.26 434.285 143.4 434.885 143.4ZM446.638 145.24C445.798 145.24 445.104 145.1 444.558 144.82C444.011 144.54 443.604 144.173 443.338 143.72C443.071 143.253 442.938 142.747 442.938 142.2C442.938 141.24 443.311 140.48 444.058 139.92C444.804 139.36 445.871 139.08 447.258 139.08H449.858V138.9C449.858 138.127 449.644 137.547 449.218 137.16C448.804 136.773 448.264 136.58 447.598 136.58C447.011 136.58 446.498 136.727 446.058 137.02C445.631 137.3 445.371 137.72 445.278 138.28H443.158C443.224 137.56 443.464 136.947 443.878 136.44C444.304 135.92 444.838 135.527 445.478 135.26C446.131 134.98 446.844 134.84 447.618 134.84C449.004 134.84 450.078 135.207 450.838 135.94C451.598 136.66 451.978 137.647 451.978 138.9V145H450.138L449.958 143.3C449.678 143.847 449.271 144.307 448.738 144.68C448.204 145.053 447.504 145.24 446.638 145.24ZM447.058 143.52C447.631 143.52 448.111 143.387 448.498 143.12C448.898 142.84 449.204 142.473 449.418 142.02C449.644 141.567 449.784 141.067 449.838 140.52H447.478C446.638 140.52 446.038 140.667 445.678 140.96C445.331 141.253 445.158 141.62 445.158 142.06C445.158 142.513 445.324 142.873 445.658 143.14C446.004 143.393 446.471 143.52 447.058 143.52ZM458.914 145C457.941 145 457.167 144.767 456.594 144.3C456.021 143.82 455.734 142.973 455.734 141.76V136.86H454.034V135.08H455.734L455.994 132.56H457.854V135.08H460.654V136.86H457.854V141.76C457.854 142.307 457.967 142.687 458.194 142.9C458.434 143.1 458.841 143.2 459.414 143.2H460.554V145H458.914ZM466.7 145.24C465.86 145.24 465.167 145.1 464.62 144.82C464.073 144.54 463.667 144.173 463.4 143.72C463.133 143.253 463 142.747 463 142.2C463 141.24 463.373 140.48 464.12 139.92C464.867 139.36 465.933 139.08 467.32 139.08H469.92V138.9C469.92 138.127 469.707 137.547 469.28 137.16C468.867 136.773 468.327 136.58 467.66 136.58C467.073 136.58 466.56 136.727 466.12 137.02C465.693 137.3 465.433 137.72 465.34 138.28H463.22C463.287 137.56 463.527 136.947 463.94 136.44C464.367 135.92 464.9 135.527 465.54 135.26C466.193 134.98 466.907 134.84 467.68 134.84C469.067 134.84 470.14 135.207 470.9 135.94C471.66 136.66 472.04 137.647 472.04 138.9V145H470.2L470.02 143.3C469.74 143.847 469.333 144.307 468.8 144.68C468.267 145.053 467.567 145.24 466.7 145.24ZM467.12 143.52C467.693 143.52 468.173 143.387 468.56 143.12C468.96 142.84 469.267 142.473 469.48 142.02C469.707 141.567 469.847 141.067 469.9 140.52H467.54C466.7 140.52 466.1 140.667 465.74 140.96C465.393 141.253 465.22 141.62 465.22 142.06C465.22 142.513 465.387 142.873 465.72 143.14C466.067 143.393 466.533 143.52 467.12 143.52ZM481.051 145V136.86H479.631V135.08H481.051V133.64C481.051 132.56 481.318 131.787 481.851 131.32C482.398 130.84 483.164 130.6 484.151 130.6H485.191V132.4H484.471C484.004 132.4 483.671 132.5 483.471 132.7C483.271 132.887 483.171 133.207 483.171 133.66V135.08H485.451V136.86H483.171V145H481.051ZM492.214 145.24C491.268 145.24 490.414 145.027 489.654 144.6C488.908 144.16 488.314 143.553 487.874 142.78C487.434 141.993 487.214 141.08 487.214 140.04C487.214 139 487.434 138.093 487.874 137.32C488.328 136.533 488.934 135.927 489.694 135.5C490.454 135.06 491.301 134.84 492.234 134.84C493.181 134.84 494.028 135.06 494.774 135.5C495.534 135.927 496.134 136.533 496.574 137.32C497.028 138.093 497.254 139 497.254 140.04C497.254 141.08 497.028 141.993 496.574 142.78C496.134 143.553 495.534 144.16 494.774 144.6C494.014 145.027 493.161 145.24 492.214 145.24ZM492.214 143.42C492.721 143.42 493.188 143.293 493.614 143.04C494.054 142.787 494.408 142.413 494.674 141.92C494.941 141.413 495.074 140.787 495.074 140.04C495.074 139.293 494.941 138.673 494.674 138.18C494.421 137.673 494.074 137.293 493.634 137.04C493.208 136.787 492.741 136.66 492.234 136.66C491.728 136.66 491.254 136.787 490.814 137.04C490.388 137.293 490.041 137.673 489.774 138.18C489.508 138.673 489.374 139.293 489.374 140.04C489.374 140.787 489.508 141.413 489.774 141.92C490.041 142.413 490.388 142.787 490.814 143.04C491.241 143.293 491.708 143.42 492.214 143.42ZM500.047 145V135.08H501.947L502.127 136.96C502.474 136.307 502.954 135.793 503.567 135.42C504.194 135.033 504.947 134.84 505.827 134.84V137.06H505.247C504.66 137.06 504.134 137.16 503.667 137.36C503.214 137.547 502.847 137.873 502.567 138.34C502.3 138.793 502.167 139.427 502.167 140.24V145H500.047ZM514.884 133.2C514.484 133.2 514.15 133.08 513.884 132.84C513.63 132.587 513.504 132.273 513.504 131.9C513.504 131.527 513.63 131.22 513.884 130.98C514.15 130.727 514.484 130.6 514.884 130.6C515.284 130.6 515.61 130.727 515.864 130.98C516.13 131.22 516.264 131.527 516.264 131.9C516.264 132.273 516.13 132.587 515.864 132.84C515.61 133.08 515.284 133.2 514.884 133.2ZM513.824 145V135.08H515.944V145H513.824ZM523.402 145C522.429 145 521.656 144.767 521.082 144.3C520.509 143.82 520.222 142.973 520.222 141.76V136.86H518.522V135.08H520.222L520.482 132.56H522.342V135.08H525.142V136.86H522.342V141.76C522.342 142.307 522.456 142.687 522.682 142.9C522.922 143.1 523.329 143.2 523.902 143.2H525.042V145H523.402ZM537.527 145C536.554 145 535.781 144.767 535.207 144.3C534.634 143.82 534.347 142.973 534.347 141.76V136.86H532.647V135.08H534.347L534.607 132.56H536.467V135.08H539.267V136.86H536.467V141.76C536.467 142.307 536.581 142.687 536.807 142.9C537.047 143.1 537.454 143.2 538.027 143.2H539.167V145H537.527ZM546.339 145.24C545.393 145.24 544.539 145.027 543.779 144.6C543.033 144.16 542.439 143.553 541.999 142.78C541.559 141.993 541.339 141.08 541.339 140.04C541.339 139 541.559 138.093 541.999 137.32C542.453 136.533 543.059 135.927 543.819 135.5C544.579 135.06 545.426 134.84 546.359 134.84C547.306 134.84 548.153 135.06 548.899 135.5C549.659 135.927 550.259 136.533 550.699 137.32C551.153 138.093 551.379 139 551.379 140.04C551.379 141.08 551.153 141.993 550.699 142.78C550.259 143.553 549.659 144.16 548.899 144.6C548.139 145.027 547.286 145.24 546.339 145.24ZM546.339 143.42C546.846 143.42 547.313 143.293 547.739 143.04C548.179 142.787 548.533 142.413 548.799 141.92C549.066 141.413 549.199 140.787 549.199 140.04C549.199 139.293 549.066 138.673 548.799 138.18C548.546 137.673 548.199 137.293 547.759 137.04C547.333 136.787 546.866 136.66 546.359 136.66C545.853 136.66 545.379 136.787 544.939 137.04C544.513 137.293 544.166 137.673 543.899 138.18C543.633 138.673 543.499 139.293 543.499 140.04C543.499 140.787 543.633 141.413 543.899 141.92C544.166 142.413 544.513 142.787 544.939 143.04C545.366 143.293 545.833 143.42 546.339 143.42ZM565.291 145.24C564.518 145.24 563.831 145.087 563.231 144.78C562.644 144.473 562.178 144.04 561.831 143.48L561.611 145H559.711V130.6H561.831V136.62C562.151 136.153 562.591 135.74 563.151 135.38C563.711 135.02 564.431 134.84 565.311 134.84C566.271 134.84 567.118 135.067 567.851 135.52C568.584 135.973 569.158 136.593 569.571 137.38C569.998 138.167 570.211 139.06 570.211 140.06C570.211 141.06 569.998 141.953 569.571 142.74C569.158 143.513 568.584 144.127 567.851 144.58C567.118 145.02 566.264 145.24 565.291 145.24ZM564.931 143.4C565.838 143.4 566.584 143.093 567.171 142.48C567.758 141.853 568.051 141.04 568.051 140.04C568.051 139.387 567.918 138.807 567.651 138.3C567.384 137.793 567.018 137.4 566.551 137.12C566.084 136.827 565.544 136.68 564.931 136.68C564.024 136.68 563.278 136.993 562.691 137.62C562.118 138.247 561.831 139.053 561.831 140.04C561.831 141.04 562.118 141.853 562.691 142.48C563.278 143.093 564.024 143.4 564.931 143.4ZM577.644 145.24C576.671 145.24 575.804 145.027 575.044 144.6C574.297 144.16 573.711 143.553 573.284 142.78C572.857 142.007 572.644 141.107 572.644 140.08C572.644 139.04 572.851 138.127 573.264 137.34C573.691 136.553 574.277 135.94 575.024 135.5C575.784 135.06 576.664 134.84 577.664 134.84C578.637 134.84 579.484 135.06 580.204 135.5C580.924 135.927 581.484 136.5 581.884 137.22C582.284 137.94 582.484 138.733 582.484 139.6C582.484 139.733 582.477 139.88 582.464 140.04C582.464 140.187 582.457 140.353 582.444 140.54H574.724C574.791 141.5 575.104 142.233 575.664 142.74C576.237 143.233 576.897 143.48 577.644 143.48C578.244 143.48 578.744 143.347 579.144 143.08C579.557 142.8 579.864 142.427 580.064 141.96H582.184C581.917 142.893 581.384 143.673 580.584 144.3C579.797 144.927 578.817 145.24 577.644 145.24ZM577.644 136.58C576.937 136.58 576.311 136.793 575.764 137.22C575.217 137.633 574.884 138.26 574.764 139.1H580.364C580.324 138.327 580.051 137.713 579.544 137.26C579.037 136.807 578.404 136.58 577.644 136.58ZM67.98 173.24C67.0067 173.24 66.14 173.027 65.38 172.6C64.6333 172.16 64.0467 171.553 63.62 170.78C63.1933 170.007 62.98 169.107 62.98 168.08C62.98 167.04 63.1867 166.127 63.6 165.34C64.0267 164.553 64.6133 163.94 65.36 163.5C66.12 163.06 67 162.84 68 162.84C68.9733 162.84 69.82 163.06 70.54 163.5C71.26 163.927 71.82 164.5 72.22 165.22C72.62 165.94 72.82 166.733 72.82 167.6C72.82 167.733 72.8133 167.88 72.8 168.04C72.8 168.187 72.7933 168.353 72.78 168.54H65.06C65.1267 169.5 65.44 170.233 66 170.74C66.5733 171.233 67.2333 171.48 67.98 171.48C68.58 171.48 69.08 171.347 69.48 171.08C69.8933 170.8 70.2 170.427 70.4 169.96H72.52C72.2533 170.893 71.72 171.673 70.92 172.3C70.1333 172.927 69.1533 173.24 67.98 173.24ZM67.98 164.58C67.2733 164.58 66.6467 164.793 66.1 165.22C65.5533 165.633 65.22 166.26 65.1 167.1H70.7C70.66 166.327 70.3867 165.713 69.88 165.26C69.3733 164.807 68.74 164.58 67.98 164.58ZM78.8797 173.24C78.0397 173.24 77.3464 173.1 76.7997 172.82C76.253 172.54 75.8464 172.173 75.5797 171.72C75.313 171.253 75.1797 170.747 75.1797 170.2C75.1797 169.24 75.553 168.48 76.2997 167.92C77.0464 167.36 78.113 167.08 79.4997 167.08H82.0997V166.9C82.0997 166.127 81.8864 165.547 81.4597 165.16C81.0464 164.773 80.5064 164.58 79.8397 164.58C79.253 164.58 78.7397 164.727 78.2997 165.02C77.873 165.3 77.613 165.72 77.5197 166.28H75.3997C75.4664 165.56 75.7064 164.947 76.1197 164.44C76.5464 163.92 77.0797 163.527 77.7197 163.26C78.373 162.98 79.0864 162.84 79.8597 162.84C81.2464 162.84 82.3197 163.207 83.0797 163.94C83.8397 164.66 84.2197 165.647 84.2197 166.9V173H82.3797L82.1997 171.3C81.9197 171.847 81.513 172.307 80.9797 172.68C80.4464 173.053 79.7464 173.24 78.8797 173.24ZM79.2997 171.52C79.873 171.52 80.353 171.387 80.7397 171.12C81.1397 170.84 81.4464 170.473 81.6597 170.02C81.8864 169.567 82.0264 169.067 82.0797 168.52H79.7197C78.8797 168.52 78.2797 168.667 77.9197 168.96C77.573 169.253 77.3997 169.62 77.3997 170.06C77.3997 170.513 77.5664 170.873 77.8997 171.14C78.2464 171.393 78.713 171.52 79.2997 171.52ZM91.1516 173.24C89.8982 173.24 88.8649 172.933 88.0516 172.32C87.2382 171.707 86.7716 170.893 86.6516 169.88H88.7916C88.8982 170.333 89.1516 170.727 89.5516 171.06C89.9516 171.38 90.4782 171.54 91.1316 171.54C91.7716 171.54 92.2382 171.407 92.5316 171.14C92.8249 170.873 92.9716 170.567 92.9716 170.22C92.9716 169.713 92.7649 169.373 92.3516 169.2C91.9516 169.013 91.3916 168.847 90.6716 168.7C90.1116 168.58 89.5516 168.42 88.9916 168.22C88.4449 168.02 87.9849 167.74 87.6116 167.38C87.2516 167.007 87.0716 166.507 87.0716 165.88C87.0716 165.013 87.4049 164.293 88.0716 163.72C88.7382 163.133 89.6716 162.84 90.8716 162.84C91.9782 162.84 92.8716 163.107 93.5516 163.64C94.2449 164.173 94.6516 164.927 94.7716 165.9H92.7316C92.6649 165.473 92.4649 165.14 92.1316 164.9C91.8116 164.66 91.3782 164.54 90.8316 164.54C90.2982 164.54 89.8849 164.653 89.5916 164.88C89.2982 165.093 89.1516 165.373 89.1516 165.72C89.1516 166.067 89.3516 166.34 89.7516 166.54C90.1649 166.74 90.7049 166.92 91.3716 167.08C92.0382 167.227 92.6516 167.4 93.2116 167.6C93.7849 167.787 94.2449 168.067 94.5916 168.44C94.9382 168.813 95.1116 169.36 95.1116 170.08C95.1249 170.987 94.7716 171.74 94.0516 172.34C93.3449 172.94 92.3782 173.24 91.1516 173.24ZM99.1259 161.2C98.7259 161.2 98.3926 161.08 98.1259 160.84C97.8726 160.587 97.7459 160.273 97.7459 159.9C97.7459 159.527 97.8726 159.22 98.1259 158.98C98.3926 158.727 98.7259 158.6 99.1259 158.6C99.5259 158.6 99.8526 158.727 100.106 158.98C100.373 159.22 100.506 159.527 100.506 159.9C100.506 160.273 100.373 160.587 100.106 160.84C99.8526 161.08 99.5259 161.2 99.1259 161.2ZM98.0659 173V163.08H100.186V173H98.0659ZM103.485 173V158.6H105.605V173H103.485ZM109.949 177.4L112.329 172.18H111.749L107.829 163.08H110.129L113.169 170.42L116.349 163.08H118.589L112.189 177.4H109.949ZM130.891 173.24C129.931 173.24 129.085 173.013 128.351 172.56C127.618 172.107 127.045 171.487 126.631 170.7C126.218 169.913 126.011 169.02 126.011 168.02C126.011 167.02 126.218 166.133 126.631 165.36C127.045 164.573 127.618 163.96 128.351 163.52C129.098 163.067 129.951 162.84 130.911 162.84C131.698 162.84 132.385 162.993 132.971 163.3C133.571 163.607 134.038 164.04 134.371 164.6V158.6H136.491V173H134.591L134.371 171.46C134.051 171.927 133.611 172.34 133.051 172.7C132.491 173.06 131.771 173.24 130.891 173.24ZM131.271 171.4C132.178 171.4 132.918 171.087 133.491 170.46C134.078 169.833 134.371 169.027 134.371 168.04C134.371 167.04 134.078 166.233 133.491 165.62C132.918 164.993 132.178 164.68 131.271 164.68C130.365 164.68 129.618 164.993 129.031 165.62C128.445 166.233 128.151 167.04 128.151 168.04C128.151 168.693 128.285 169.273 128.551 169.78C128.818 170.287 129.185 170.687 129.651 170.98C130.131 171.26 130.671 171.4 131.271 171.4ZM140.864 161.2C140.464 161.2 140.131 161.08 139.864 160.84C139.611 160.587 139.484 160.273 139.484 159.9C139.484 159.527 139.611 159.22 139.864 158.98C140.131 158.727 140.464 158.6 140.864 158.6C141.264 158.6 141.591 158.727 141.844 158.98C142.111 159.22 142.244 159.527 142.244 159.9C142.244 160.273 142.111 160.587 141.844 160.84C141.591 161.08 141.264 161.2 140.864 161.2ZM139.804 173V163.08H141.924V173H139.804ZM149.283 169.96C148.763 169.96 148.283 169.9 147.843 169.78L146.983 170.62C147.129 170.713 147.309 170.793 147.523 170.86C147.736 170.927 148.036 170.987 148.423 171.04C148.809 171.093 149.336 171.147 150.003 171.2C151.323 171.32 152.276 171.64 152.863 172.16C153.449 172.667 153.743 173.347 153.743 174.2C153.743 174.787 153.583 175.34 153.263 175.86C152.956 176.393 152.469 176.82 151.803 177.14C151.149 177.473 150.309 177.64 149.283 177.64C147.896 177.64 146.769 177.373 145.903 176.84C145.049 176.32 144.623 175.527 144.623 174.46C144.623 174.047 144.729 173.633 144.943 173.22C145.169 172.82 145.523 172.44 146.003 172.08C145.723 171.96 145.476 171.833 145.263 171.7C145.063 171.553 144.883 171.407 144.723 171.26V170.78L146.443 169.02C145.669 168.353 145.283 167.48 145.283 166.4C145.283 165.747 145.436 165.153 145.743 164.62C146.063 164.073 146.523 163.64 147.123 163.32C147.723 163 148.443 162.84 149.283 162.84C149.843 162.84 150.363 162.92 150.843 163.08H154.543V164.48L152.783 164.58C153.103 165.127 153.263 165.733 153.263 166.4C153.263 167.067 153.103 167.667 152.783 168.2C152.476 168.733 152.023 169.16 151.423 169.48C150.836 169.8 150.123 169.96 149.283 169.96ZM149.283 168.3C149.896 168.3 150.389 168.14 150.763 167.82C151.149 167.487 151.343 167.02 151.343 166.42C151.343 165.807 151.149 165.34 150.763 165.02C150.389 164.7 149.896 164.54 149.283 164.54C148.656 164.54 148.149 164.7 147.763 165.02C147.389 165.34 147.203 165.807 147.203 166.42C147.203 167.02 147.389 167.487 147.763 167.82C148.149 168.14 148.656 168.3 149.283 168.3ZM146.623 174.26C146.623 174.833 146.876 175.26 147.383 175.54C147.889 175.833 148.523 175.98 149.283 175.98C150.016 175.98 150.609 175.82 151.063 175.5C151.516 175.193 151.743 174.78 151.743 174.26C151.743 173.873 151.589 173.54 151.283 173.26C150.976 172.993 150.396 172.827 149.543 172.76C148.903 172.72 148.336 172.66 147.843 172.58C147.376 172.833 147.056 173.107 146.883 173.4C146.709 173.693 146.623 173.98 146.623 174.26ZM161.183 173.24C160.21 173.24 159.343 173.027 158.583 172.6C157.836 172.16 157.25 171.553 156.823 170.78C156.396 170.007 156.183 169.107 156.183 168.08C156.183 167.04 156.39 166.127 156.803 165.34C157.23 164.553 157.816 163.94 158.563 163.5C159.323 163.06 160.203 162.84 161.203 162.84C162.176 162.84 163.023 163.06 163.743 163.5C164.463 163.927 165.023 164.5 165.423 165.22C165.823 165.94 166.023 166.733 166.023 167.6C166.023 167.733 166.016 167.88 166.003 168.04C166.003 168.187 165.996 168.353 165.983 168.54H158.263C158.33 169.5 158.643 170.233 159.203 170.74C159.776 171.233 160.436 171.48 161.183 171.48C161.783 171.48 162.283 171.347 162.683 171.08C163.096 170.8 163.403 170.427 163.603 169.96H165.723C165.456 170.893 164.923 171.673 164.123 172.3C163.336 172.927 162.356 173.24 161.183 173.24ZM161.183 164.58C160.476 164.58 159.85 164.793 159.303 165.22C158.756 165.633 158.423 166.26 158.303 167.1H163.903C163.863 166.327 163.59 165.713 163.083 165.26C162.576 164.807 161.943 164.58 161.183 164.58ZM172.683 173.24C171.429 173.24 170.396 172.933 169.583 172.32C168.769 171.707 168.303 170.893 168.183 169.88H170.323C170.429 170.333 170.683 170.727 171.083 171.06C171.483 171.38 172.009 171.54 172.663 171.54C173.303 171.54 173.769 171.407 174.063 171.14C174.356 170.873 174.503 170.567 174.503 170.22C174.503 169.713 174.296 169.373 173.883 169.2C173.483 169.013 172.923 168.847 172.203 168.7C171.643 168.58 171.083 168.42 170.523 168.22C169.976 168.02 169.516 167.74 169.143 167.38C168.783 167.007 168.603 166.507 168.603 165.88C168.603 165.013 168.936 164.293 169.603 163.72C170.269 163.133 171.203 162.84 172.403 162.84C173.509 162.84 174.403 163.107 175.083 163.64C175.776 164.173 176.183 164.927 176.303 165.9H174.263C174.196 165.473 173.996 165.14 173.663 164.9C173.343 164.66 172.909 164.54 172.363 164.54C171.829 164.54 171.416 164.653 171.123 164.88C170.829 165.093 170.683 165.373 170.683 165.72C170.683 166.067 170.883 166.34 171.283 166.54C171.696 166.74 172.236 166.92 172.903 167.08C173.569 167.227 174.183 167.4 174.743 167.6C175.316 167.787 175.776 168.067 176.123 168.44C176.469 168.813 176.643 169.36 176.643 170.08C176.656 170.987 176.303 171.74 175.583 172.34C174.876 172.94 173.909 173.24 172.683 173.24ZM183.246 173C182.273 173 181.499 172.767 180.926 172.3C180.353 171.82 180.066 170.973 180.066 169.76V164.86H178.366V163.08H180.066L180.326 160.56H182.186V163.08H184.986V164.86H182.186V169.76C182.186 170.307 182.299 170.687 182.526 170.9C182.766 171.1 183.173 171.2 183.746 171.2H184.886V173H183.246ZM191.032 173.24C190.192 173.24 189.499 173.1 188.952 172.82C188.405 172.54 187.999 172.173 187.732 171.72C187.465 171.253 187.332 170.747 187.332 170.2C187.332 169.24 187.705 168.48 188.452 167.92C189.199 167.36 190.265 167.08 191.652 167.08H194.252V166.9C194.252 166.127 194.039 165.547 193.612 165.16C193.199 164.773 192.659 164.58 191.992 164.58C191.405 164.58 190.892 164.727 190.452 165.02C190.025 165.3 189.765 165.72 189.672 166.28H187.552C187.619 165.56 187.859 164.947 188.272 164.44C188.699 163.92 189.232 163.527 189.872 163.26C190.525 162.98 191.239 162.84 192.012 162.84C193.399 162.84 194.472 163.207 195.232 163.94C195.992 164.66 196.372 165.647 196.372 166.9V173H194.532L194.352 171.3C194.072 171.847 193.665 172.307 193.132 172.68C192.599 173.053 191.899 173.24 191.032 173.24ZM191.452 171.52C192.025 171.52 192.505 171.387 192.892 171.12C193.292 170.84 193.599 170.473 193.812 170.02C194.039 169.567 194.179 169.067 194.232 168.52H191.872C191.032 168.52 190.432 168.667 190.072 168.96C189.725 169.253 189.552 169.62 189.552 170.06C189.552 170.513 189.719 170.873 190.052 171.14C190.399 171.393 190.865 171.52 191.452 171.52ZM204.924 173.24C204.151 173.24 203.464 173.087 202.864 172.78C202.277 172.473 201.811 172.04 201.464 171.48L201.244 173H199.344V158.6H201.464V164.62C201.784 164.153 202.224 163.74 202.784 163.38C203.344 163.02 204.064 162.84 204.944 162.84C205.904 162.84 206.751 163.067 207.484 163.52C208.217 163.973 208.791 164.593 209.204 165.38C209.631 166.167 209.844 167.06 209.844 168.06C209.844 169.06 209.631 169.953 209.204 170.74C208.791 171.513 208.217 172.127 207.484 172.58C206.751 173.02 205.897 173.24 204.924 173.24ZM204.564 171.4C205.471 171.4 206.217 171.093 206.804 170.48C207.391 169.853 207.684 169.04 207.684 168.04C207.684 167.387 207.551 166.807 207.284 166.3C207.017 165.793 206.651 165.4 206.184 165.12C205.717 164.827 205.177 164.68 204.564 164.68C203.657 164.68 202.911 164.993 202.324 165.62C201.751 166.247 201.464 167.053 201.464 168.04C201.464 169.04 201.751 169.853 202.324 170.48C202.911 171.093 203.657 171.4 204.564 171.4ZM212.637 173V158.6H214.757V173H212.637ZM222.582 173.24C221.608 173.24 220.742 173.027 219.982 172.6C219.235 172.16 218.648 171.553 218.222 170.78C217.795 170.007 217.582 169.107 217.582 168.08C217.582 167.04 217.788 166.127 218.202 165.34C218.628 164.553 219.215 163.94 219.962 163.5C220.722 163.06 221.602 162.84 222.602 162.84C223.575 162.84 224.422 163.06 225.142 163.5C225.862 163.927 226.422 164.5 226.822 165.22C227.222 165.94 227.422 166.733 227.422 167.6C227.422 167.733 227.415 167.88 227.402 168.04C227.402 168.187 227.395 168.353 227.382 168.54H219.662C219.728 169.5 220.042 170.233 220.602 170.74C221.175 171.233 221.835 171.48 222.582 171.48C223.182 171.48 223.682 171.347 224.082 171.08C224.495 170.8 224.802 170.427 225.002 169.96H227.122C226.855 170.893 226.322 171.673 225.522 172.3C224.735 172.927 223.755 173.24 222.582 173.24ZM222.582 164.58C221.875 164.58 221.248 164.793 220.702 165.22C220.155 165.633 219.822 166.26 219.702 167.1H225.302C225.262 166.327 224.988 165.713 224.482 165.26C223.975 164.807 223.342 164.58 222.582 164.58ZM241.24 173.24C240.467 173.24 239.78 173.087 239.18 172.78C238.594 172.473 238.127 172.04 237.78 171.48L237.56 173H235.66V158.6H237.78V164.62C238.1 164.153 238.54 163.74 239.1 163.38C239.66 163.02 240.38 162.84 241.26 162.84C242.22 162.84 243.067 163.067 243.8 163.52C244.534 163.973 245.107 164.593 245.52 165.38C245.947 166.167 246.16 167.06 246.16 168.06C246.16 169.06 245.947 169.953 245.52 170.74C245.107 171.513 244.534 172.127 243.8 172.58C243.067 173.02 242.214 173.24 241.24 173.24ZM240.88 171.4C241.787 171.4 242.534 171.093 243.12 170.48C243.707 169.853 244 169.04 244 168.04C244 167.387 243.867 166.807 243.6 166.3C243.334 165.793 242.967 165.4 242.5 165.12C242.034 164.827 241.494 164.68 240.88 164.68C239.974 164.68 239.227 164.993 238.64 165.62C238.067 166.247 237.78 167.053 237.78 168.04C237.78 169.04 238.067 169.853 238.64 170.48C239.227 171.093 239.974 171.4 240.88 171.4ZM252.613 173.24C251.413 173.24 250.467 172.867 249.773 172.12C249.093 171.373 248.753 170.26 248.753 168.78V163.08H250.873V168.56C250.873 170.48 251.66 171.44 253.233 171.44C254.02 171.44 254.667 171.16 255.173 170.6C255.68 170.04 255.933 169.24 255.933 168.2V163.08H258.053V173H256.173L256.013 171.26C255.707 171.873 255.253 172.36 254.653 172.72C254.067 173.067 253.387 173.24 252.613 173.24ZM265.41 173C264.437 173 263.663 172.767 263.09 172.3C262.517 171.82 262.23 170.973 262.23 169.76V164.86H260.53V163.08H262.23L262.49 160.56H264.35V163.08H267.15V164.86H264.35V169.76C264.35 170.307 264.463 170.687 264.69 170.9C264.93 171.1 265.337 171.2 265.91 171.2H267.05V173H265.41ZM278.735 173.24C277.895 173.24 277.202 173.1 276.655 172.82C276.108 172.54 275.702 172.173 275.435 171.72C275.168 171.253 275.035 170.747 275.035 170.2C275.035 169.24 275.408 168.48 276.155 167.92C276.902 167.36 277.968 167.08 279.355 167.08H281.955V166.9C281.955 166.127 281.742 165.547 281.315 165.16C280.902 164.773 280.362 164.58 279.695 164.58C279.108 164.58 278.595 164.727 278.155 165.02C277.728 165.3 277.468 165.72 277.375 166.28H275.255C275.322 165.56 275.562 164.947 275.975 164.44C276.402 163.92 276.935 163.527 277.575 163.26C278.228 162.98 278.942 162.84 279.715 162.84C281.102 162.84 282.175 163.207 282.935 163.94C283.695 164.66 284.075 165.647 284.075 166.9V173H282.235L282.055 171.3C281.775 171.847 281.368 172.307 280.835 172.68C280.302 173.053 279.602 173.24 278.735 173.24ZM279.155 171.52C279.728 171.52 280.208 171.387 280.595 171.12C280.995 170.84 281.302 170.473 281.515 170.02C281.742 169.567 281.882 169.067 281.935 168.52H279.575C278.735 168.52 278.135 168.667 277.775 168.96C277.428 169.253 277.255 169.62 277.255 170.06C277.255 170.513 277.422 170.873 277.755 171.14C278.102 171.393 278.568 171.52 279.155 171.52ZM287.047 173V158.6H289.167V173H287.047ZM296.312 173.24C295.058 173.24 294.025 172.933 293.212 172.32C292.398 171.707 291.932 170.893 291.812 169.88H293.952C294.058 170.333 294.312 170.727 294.712 171.06C295.112 171.38 295.638 171.54 296.292 171.54C296.932 171.54 297.398 171.407 297.692 171.14C297.985 170.873 298.132 170.567 298.132 170.22C298.132 169.713 297.925 169.373 297.512 169.2C297.112 169.013 296.552 168.847 295.832 168.7C295.272 168.58 294.712 168.42 294.152 168.22C293.605 168.02 293.145 167.74 292.772 167.38C292.412 167.007 292.232 166.507 292.232 165.88C292.232 165.013 292.565 164.293 293.232 163.72C293.898 163.133 294.832 162.84 296.032 162.84C297.138 162.84 298.032 163.107 298.712 163.64C299.405 164.173 299.812 164.927 299.932 165.9H297.892C297.825 165.473 297.625 165.14 297.292 164.9C296.972 164.66 296.538 164.54 295.992 164.54C295.458 164.54 295.045 164.653 294.752 164.88C294.458 165.093 294.312 165.373 294.312 165.72C294.312 166.067 294.512 166.34 294.912 166.54C295.325 166.74 295.865 166.92 296.532 167.08C297.198 167.227 297.812 167.4 298.372 167.6C298.945 167.787 299.405 168.067 299.752 168.44C300.098 168.813 300.272 169.36 300.272 170.08C300.285 170.987 299.932 171.74 299.212 172.34C298.505 172.94 297.538 173.24 296.312 173.24ZM307.726 173.24C306.779 173.24 305.926 173.027 305.166 172.6C304.419 172.16 303.826 171.553 303.386 170.78C302.946 169.993 302.726 169.08 302.726 168.04C302.726 167 302.946 166.093 303.386 165.32C303.839 164.533 304.446 163.927 305.206 163.5C305.966 163.06 306.813 162.84 307.746 162.84C308.693 162.84 309.539 163.06 310.286 163.5C311.046 163.927 311.646 164.533 312.086 165.32C312.539 166.093 312.766 167 312.766 168.04C312.766 169.08 312.539 169.993 312.086 170.78C311.646 171.553 311.046 172.16 310.286 172.6C309.526 173.027 308.673 173.24 307.726 173.24ZM307.726 171.42C308.233 171.42 308.699 171.293 309.126 171.04C309.566 170.787 309.919 170.413 310.186 169.92C310.453 169.413 310.586 168.787 310.586 168.04C310.586 167.293 310.453 166.673 310.186 166.18C309.933 165.673 309.586 165.293 309.146 165.04C308.719 164.787 308.253 164.66 307.746 164.66C307.239 164.66 306.766 164.787 306.326 165.04C305.899 165.293 305.553 165.673 305.286 166.18C305.019 166.673 304.886 167.293 304.886 168.04C304.886 168.787 305.019 169.413 305.286 169.92C305.553 170.413 305.899 170.787 306.326 171.04C306.753 171.293 307.219 171.42 307.726 171.42ZM325.158 169.96C324.638 169.96 324.158 169.9 323.718 169.78L322.858 170.62C323.004 170.713 323.184 170.793 323.398 170.86C323.611 170.927 323.911 170.987 324.298 171.04C324.684 171.093 325.211 171.147 325.878 171.2C327.198 171.32 328.151 171.64 328.738 172.16C329.324 172.667 329.618 173.347 329.618 174.2C329.618 174.787 329.458 175.34 329.138 175.86C328.831 176.393 328.344 176.82 327.678 177.14C327.024 177.473 326.184 177.64 325.158 177.64C323.771 177.64 322.644 177.373 321.778 176.84C320.924 176.32 320.498 175.527 320.498 174.46C320.498 174.047 320.604 173.633 320.818 173.22C321.044 172.82 321.398 172.44 321.878 172.08C321.598 171.96 321.351 171.833 321.138 171.7C320.938 171.553 320.758 171.407 320.598 171.26V170.78L322.318 169.02C321.544 168.353 321.158 167.48 321.158 166.4C321.158 165.747 321.311 165.153 321.618 164.62C321.938 164.073 322.398 163.64 322.998 163.32C323.598 163 324.318 162.84 325.158 162.84C325.718 162.84 326.238 162.92 326.718 163.08H330.418V164.48L328.658 164.58C328.978 165.127 329.138 165.733 329.138 166.4C329.138 167.067 328.978 167.667 328.658 168.2C328.351 168.733 327.898 169.16 327.298 169.48C326.711 169.8 325.998 169.96 325.158 169.96ZM325.158 168.3C325.771 168.3 326.264 168.14 326.638 167.82C327.024 167.487 327.218 167.02 327.218 166.42C327.218 165.807 327.024 165.34 326.638 165.02C326.264 164.7 325.771 164.54 325.158 164.54C324.531 164.54 324.024 164.7 323.638 165.02C323.264 165.34 323.078 165.807 323.078 166.42C323.078 167.02 323.264 167.487 323.638 167.82C324.024 168.14 324.531 168.3 325.158 168.3ZM322.498 174.26C322.498 174.833 322.751 175.26 323.258 175.54C323.764 175.833 324.398 175.98 325.158 175.98C325.891 175.98 326.484 175.82 326.938 175.5C327.391 175.193 327.618 174.78 327.618 174.26C327.618 173.873 327.464 173.54 327.158 173.26C326.851 172.993 326.271 172.827 325.418 172.76C324.778 172.72 324.211 172.66 323.718 172.58C323.251 172.833 322.931 173.107 322.758 173.4C322.584 173.693 322.498 173.98 322.498 174.26ZM334.009 161.2C333.609 161.2 333.275 161.08 333.009 160.84C332.755 160.587 332.629 160.273 332.629 159.9C332.629 159.527 332.755 159.22 333.009 158.98C333.275 158.727 333.609 158.6 334.009 158.6C334.409 158.6 334.735 158.727 334.989 158.98C335.255 159.22 335.389 159.527 335.389 159.9C335.389 160.273 335.255 160.587 334.989 160.84C334.735 161.08 334.409 161.2 334.009 161.2ZM332.949 173V163.08H335.069V173H332.949ZM341.147 173L337.427 163.08H339.647L342.407 170.98L345.167 163.08H347.367L343.667 173H341.147ZM350.81 161.2C350.41 161.2 350.076 161.08 349.81 160.84C349.556 160.587 349.43 160.273 349.43 159.9C349.43 159.527 349.556 159.22 349.81 158.98C350.076 158.727 350.41 158.6 350.81 158.6C351.21 158.6 351.536 158.727 351.79 158.98C352.056 159.22 352.19 159.527 352.19 159.9C352.19 160.273 352.056 160.587 351.79 160.84C351.536 161.08 351.21 161.2 350.81 161.2ZM349.75 173V163.08H351.87V173H349.75ZM355.168 173V163.08H357.048L357.208 164.82C357.515 164.207 357.961 163.727 358.548 163.38C359.148 163.02 359.835 162.84 360.608 162.84C361.808 162.84 362.748 163.213 363.428 163.96C364.121 164.707 364.468 165.82 364.468 167.3V173H362.368V167.52C362.368 165.6 361.581 164.64 360.008 164.64C359.221 164.64 358.568 164.92 358.048 165.48C357.541 166.04 357.288 166.84 357.288 167.88V173H355.168ZM371.525 169.96C371.005 169.96 370.525 169.9 370.085 169.78L369.225 170.62C369.372 170.713 369.552 170.793 369.765 170.86C369.978 170.927 370.278 170.987 370.665 171.04C371.052 171.093 371.578 171.147 372.245 171.2C373.565 171.32 374.518 171.64 375.105 172.16C375.692 172.667 375.985 173.347 375.985 174.2C375.985 174.787 375.825 175.34 375.505 175.86C375.198 176.393 374.712 176.82 374.045 177.14C373.392 177.473 372.552 177.64 371.525 177.64C370.138 177.64 369.012 177.373 368.145 176.84C367.292 176.32 366.865 175.527 366.865 174.46C366.865 174.047 366.972 173.633 367.185 173.22C367.412 172.82 367.765 172.44 368.245 172.08C367.965 171.96 367.718 171.833 367.505 171.7C367.305 171.553 367.125 171.407 366.965 171.26V170.78L368.685 169.02C367.912 168.353 367.525 167.48 367.525 166.4C367.525 165.747 367.678 165.153 367.985 164.62C368.305 164.073 368.765 163.64 369.365 163.32C369.965 163 370.685 162.84 371.525 162.84C372.085 162.84 372.605 162.92 373.085 163.08H376.785V164.48L375.025 164.58C375.345 165.127 375.505 165.733 375.505 166.4C375.505 167.067 375.345 167.667 375.025 168.2C374.718 168.733 374.265 169.16 373.665 169.48C373.078 169.8 372.365 169.96 371.525 169.96ZM371.525 168.3C372.138 168.3 372.632 168.14 373.005 167.82C373.392 167.487 373.585 167.02 373.585 166.42C373.585 165.807 373.392 165.34 373.005 165.02C372.632 164.7 372.138 164.54 371.525 164.54C370.898 164.54 370.392 164.7 370.005 165.02C369.632 165.34 369.445 165.807 369.445 166.42C369.445 167.02 369.632 167.487 370.005 167.82C370.392 168.14 370.898 168.3 371.525 168.3ZM368.865 174.26C368.865 174.833 369.118 175.26 369.625 175.54C370.132 175.833 370.765 175.98 371.525 175.98C372.258 175.98 372.852 175.82 373.305 175.5C373.758 175.193 373.985 174.78 373.985 174.26C373.985 173.873 373.832 173.54 373.525 173.26C373.218 172.993 372.638 172.827 371.785 172.76C371.145 172.72 370.578 172.66 370.085 172.58C369.618 172.833 369.298 173.107 369.125 173.4C368.952 173.693 368.865 173.98 368.865 174.26ZM388.875 173C387.902 173 387.128 172.767 386.555 172.3C385.982 171.82 385.695 170.973 385.695 169.76V164.86H383.995V163.08H385.695L385.955 160.56H387.815V163.08H390.615V164.86H387.815V169.76C387.815 170.307 387.928 170.687 388.155 170.9C388.395 171.1 388.802 171.2 389.375 171.2H390.515V173H388.875ZM393.301 173V158.6H395.421V164.68C395.754 164.107 396.214 163.66 396.801 163.34C397.401 163.007 398.061 162.84 398.781 162.84C399.968 162.84 400.901 163.213 401.581 163.96C402.261 164.707 402.601 165.82 402.601 167.3V173H400.501V167.52C400.501 165.6 399.734 164.64 398.201 164.64C397.401 164.64 396.734 164.92 396.201 165.48C395.681 166.04 395.421 166.84 395.421 167.88V173H393.301ZM410.238 173.24C409.264 173.24 408.398 173.027 407.638 172.6C406.891 172.16 406.304 171.553 405.878 170.78C405.451 170.007 405.238 169.107 405.238 168.08C405.238 167.04 405.444 166.127 405.858 165.34C406.284 164.553 406.871 163.94 407.618 163.5C408.378 163.06 409.258 162.84 410.258 162.84C411.231 162.84 412.078 163.06 412.798 163.5C413.518 163.927 414.078 164.5 414.478 165.22C414.878 165.94 415.078 166.733 415.078 167.6C415.078 167.733 415.071 167.88 415.058 168.04C415.058 168.187 415.051 168.353 415.038 168.54H407.318C407.384 169.5 407.698 170.233 408.258 170.74C408.831 171.233 409.491 171.48 410.238 171.48C410.838 171.48 411.338 171.347 411.738 171.08C412.151 170.8 412.458 170.427 412.658 169.96H414.778C414.511 170.893 413.978 171.673 413.178 172.3C412.391 172.927 411.411 173.24 410.238 173.24ZM410.238 164.58C409.531 164.58 408.904 164.793 408.358 165.22C407.811 165.633 407.478 166.26 407.358 167.1H412.958C412.918 166.327 412.644 165.713 412.138 165.26C411.631 164.807 410.998 164.58 410.238 164.58ZM417.778 173V163.08H419.658L419.838 164.48C420.158 163.973 420.578 163.573 421.098 163.28C421.631 162.987 422.244 162.84 422.938 162.84C424.511 162.84 425.604 163.46 426.218 164.7C426.578 164.127 427.058 163.673 427.658 163.34C428.271 163.007 428.931 162.84 429.638 162.84C430.878 162.84 431.851 163.213 432.558 163.96C433.264 164.707 433.618 165.82 433.618 167.3V173H431.498V167.52C431.498 165.6 430.764 164.64 429.298 164.64C428.551 164.64 427.938 164.92 427.457 165.48C426.991 166.04 426.758 166.84 426.758 167.88V173H424.638V167.52C424.638 165.6 423.898 164.64 422.418 164.64C421.684 164.64 421.078 164.92 420.598 165.48C420.131 166.04 419.898 166.84 419.898 167.88V173H417.778ZM446.297 173C445.324 173 444.55 172.767 443.977 172.3C443.404 171.82 443.117 170.973 443.117 169.76V164.86H441.417V163.08H443.117L443.377 160.56H445.237V163.08H448.037V164.86H445.237V169.76C445.237 170.307 445.35 170.687 445.577 170.9C445.817 171.1 446.224 171.2 446.797 171.2H447.937V173H446.297ZM450.723 173V158.6H452.843V164.68C453.176 164.107 453.636 163.66 454.223 163.34C454.823 163.007 455.483 162.84 456.203 162.84C457.389 162.84 458.323 163.213 459.003 163.96C459.683 164.707 460.023 165.82 460.023 167.3V173H457.923V167.52C457.923 165.6 457.156 164.64 455.623 164.64C454.823 164.64 454.156 164.92 453.623 165.48C453.103 166.04 452.843 166.84 452.843 167.88V173H450.723ZM467.66 173.24C466.686 173.24 465.82 173.027 465.06 172.6C464.313 172.16 463.726 171.553 463.3 170.78C462.873 170.007 462.66 169.107 462.66 168.08C462.66 167.04 462.866 166.127 463.28 165.34C463.706 164.553 464.293 163.94 465.04 163.5C465.8 163.06 466.68 162.84 467.68 162.84C468.653 162.84 469.5 163.06 470.22 163.5C470.94 163.927 471.5 164.5 471.9 165.22C472.3 165.94 472.5 166.733 472.5 167.6C472.5 167.733 472.493 167.88 472.48 168.04C472.48 168.187 472.473 168.353 472.46 168.54H464.74C464.806 169.5 465.12 170.233 465.68 170.74C466.253 171.233 466.913 171.48 467.66 171.48C468.26 171.48 468.76 171.347 469.16 171.08C469.573 170.8 469.88 170.427 470.08 169.96H472.2C471.933 170.893 471.4 171.673 470.6 172.3C469.813 172.927 468.833 173.24 467.66 173.24ZM467.66 164.58C466.953 164.58 466.326 164.793 465.78 165.22C465.233 165.633 464.9 166.26 464.78 167.1H470.38C470.34 166.327 470.066 165.713 469.56 165.26C469.053 164.807 468.42 164.58 467.66 164.58ZM484.098 173.24C483.258 173.24 482.565 173.1 482.018 172.82C481.472 172.54 481.065 172.173 480.798 171.72C480.532 171.253 480.398 170.747 480.398 170.2C480.398 169.24 480.772 168.48 481.518 167.92C482.265 167.36 483.332 167.08 484.718 167.08H487.318V166.9C487.318 166.127 487.105 165.547 486.678 165.16C486.265 164.773 485.725 164.58 485.058 164.58C484.472 164.58 483.958 164.727 483.518 165.02C483.092 165.3 482.832 165.72 482.738 166.28H480.618C480.685 165.56 480.925 164.947 481.338 164.44C481.765 163.92 482.298 163.527 482.938 163.26C483.592 162.98 484.305 162.84 485.078 162.84C486.465 162.84 487.538 163.207 488.298 163.94C489.058 164.66 489.438 165.647 489.438 166.9V173H487.598L487.418 171.3C487.138 171.847 486.732 172.307 486.198 172.68C485.665 173.053 484.965 173.24 484.098 173.24ZM484.518 171.52C485.092 171.52 485.572 171.387 485.958 171.12C486.358 170.84 486.665 170.473 486.878 170.02C487.105 169.567 487.245 169.067 487.298 168.52H484.938C484.098 168.52 483.498 168.667 483.138 168.96C482.792 169.253 482.618 169.62 482.618 170.06C482.618 170.513 482.785 170.873 483.118 171.14C483.465 171.393 483.932 171.52 484.518 171.52ZM492.41 177.4V163.08H494.31L494.53 164.62C494.85 164.153 495.29 163.74 495.85 163.38C496.41 163.02 497.13 162.84 498.01 162.84C498.97 162.84 499.817 163.067 500.55 163.52C501.284 163.973 501.857 164.593 502.27 165.38C502.697 166.167 502.91 167.06 502.91 168.06C502.91 169.06 502.697 169.953 502.27 170.74C501.857 171.513 501.284 172.127 500.55 172.58C499.817 173.02 498.964 173.24 497.99 173.24C497.217 173.24 496.53 173.087 495.93 172.78C495.344 172.473 494.877 172.04 494.53 171.48V177.4H492.41ZM497.63 171.4C498.537 171.4 499.284 171.093 499.87 170.48C500.457 169.853 500.75 169.04 500.75 168.04C500.75 167.387 500.617 166.807 500.35 166.3C500.084 165.793 499.717 165.4 499.25 165.12C498.784 164.827 498.244 164.68 497.63 164.68C496.724 164.68 495.977 164.993 495.39 165.62C494.817 166.247 494.53 167.053 494.53 168.04C494.53 169.04 494.817 169.853 495.39 170.48C495.977 171.093 496.724 171.4 497.63 171.4ZM505.703 177.4V163.08H507.603L507.823 164.62C508.143 164.153 508.583 163.74 509.143 163.38C509.703 163.02 510.423 162.84 511.303 162.84C512.263 162.84 513.11 163.067 513.843 163.52C514.577 163.973 515.15 164.593 515.563 165.38C515.99 166.167 516.203 167.06 516.203 168.06C516.203 169.06 515.99 169.953 515.563 170.74C515.15 171.513 514.577 172.127 513.843 172.58C513.11 173.02 512.257 173.24 511.283 173.24C510.51 173.24 509.823 173.087 509.223 172.78C508.637 172.473 508.17 172.04 507.823 171.48V177.4H505.703ZM510.923 171.4C511.83 171.4 512.577 171.093 513.163 170.48C513.75 169.853 514.043 169.04 514.043 168.04C514.043 167.387 513.91 166.807 513.643 166.3C513.377 165.793 513.01 165.4 512.543 165.12C512.077 164.827 511.537 164.68 510.923 164.68C510.017 164.68 509.27 164.993 508.683 165.62C508.11 166.247 507.823 167.053 507.823 168.04C507.823 169.04 508.11 169.853 508.683 170.48C509.27 171.093 510.017 171.4 510.923 171.4ZM523.636 173.24C522.69 173.24 521.836 173.027 521.076 172.6C520.33 172.16 519.736 171.553 519.296 170.78C518.856 169.993 518.636 169.08 518.636 168.04C518.636 167 518.856 166.093 519.296 165.32C519.75 164.533 520.356 163.927 521.116 163.5C521.876 163.06 522.723 162.84 523.656 162.84C524.603 162.84 525.45 163.06 526.196 163.5C526.956 163.927 527.556 164.533 527.996 165.32C528.45 166.093 528.676 167 528.676 168.04C528.676 169.08 528.45 169.993 527.996 170.78C527.556 171.553 526.956 172.16 526.196 172.6C525.436 173.027 524.583 173.24 523.636 173.24ZM523.636 171.42C524.143 171.42 524.61 171.293 525.036 171.04C525.476 170.787 525.83 170.413 526.096 169.92C526.363 169.413 526.496 168.787 526.496 168.04C526.496 167.293 526.363 166.673 526.096 166.18C525.843 165.673 525.496 165.293 525.056 165.04C524.63 164.787 524.163 164.66 523.656 164.66C523.15 164.66 522.676 164.787 522.236 165.04C521.81 165.293 521.463 165.673 521.196 166.18C520.93 166.673 520.796 167.293 520.796 168.04C520.796 168.787 520.93 169.413 521.196 169.92C521.463 170.413 521.81 170.787 522.236 171.04C522.663 171.293 523.13 171.42 523.636 171.42ZM531.469 173V163.08H533.369L533.549 164.96C533.896 164.307 534.376 163.793 534.989 163.42C535.616 163.033 536.369 162.84 537.249 162.84V165.06H536.669C536.082 165.06 535.556 165.16 535.089 165.36C534.636 165.547 534.269 165.873 533.989 166.34C533.722 166.793 533.589 167.427 533.589 168.24V173H531.469ZM540.767 161.2C540.367 161.2 540.033 161.08 539.767 160.84C539.513 160.587 539.387 160.273 539.387 159.9C539.387 159.527 539.513 159.22 539.767 158.98C540.033 158.727 540.367 158.6 540.767 158.6C541.167 158.6 541.493 158.727 541.747 158.98C542.013 159.22 542.147 159.527 542.147 159.9C542.147 160.273 542.013 160.587 541.747 160.84C541.493 161.08 541.167 161.2 540.767 161.2ZM539.707 173V163.08H541.827V173H539.707ZM548.485 173.24C547.645 173.24 546.952 173.1 546.405 172.82C545.858 172.54 545.452 172.173 545.185 171.72C544.918 171.253 544.785 170.747 544.785 170.2C544.785 169.24 545.158 168.48 545.905 167.92C546.652 167.36 547.718 167.08 549.105 167.08H551.705V166.9C551.705 166.127 551.492 165.547 551.065 165.16C550.652 164.773 550.112 164.58 549.445 164.58C548.858 164.58 548.345 164.727 547.905 165.02C547.478 165.3 547.218 165.72 547.125 166.28H545.005C545.072 165.56 545.312 164.947 545.725 164.44C546.152 163.92 546.685 163.527 547.325 163.26C547.978 162.98 548.692 162.84 549.465 162.84C550.852 162.84 551.925 163.207 552.685 163.94C553.445 164.66 553.825 165.647 553.825 166.9V173H551.985L551.805 171.3C551.525 171.847 551.118 172.307 550.585 172.68C550.052 173.053 549.352 173.24 548.485 173.24ZM548.905 171.52C549.478 171.52 549.958 171.387 550.345 171.12C550.745 170.84 551.052 170.473 551.265 170.02C551.492 169.567 551.632 169.067 551.685 168.52H549.325C548.485 168.52 547.885 168.667 547.525 168.96C547.178 169.253 547.005 169.62 547.005 170.06C547.005 170.513 547.172 170.873 547.505 171.14C547.852 171.393 548.318 171.52 548.905 171.52ZM560.762 173C559.788 173 559.015 172.767 558.442 172.3C557.868 171.82 557.582 170.973 557.582 169.76V164.86H555.882V163.08H557.582L557.842 160.56H559.702V163.08H562.502V164.86H559.702V169.76C559.702 170.307 559.815 170.687 560.042 170.9C560.282 171.1 560.688 171.2 561.262 171.2H562.402V173H560.762ZM569.574 173.24C568.6 173.24 567.734 173.027 566.974 172.6C566.227 172.16 565.64 171.553 565.214 170.78C564.787 170.007 564.574 169.107 564.574 168.08C564.574 167.04 564.78 166.127 565.194 165.34C565.62 164.553 566.207 163.94 566.954 163.5C567.714 163.06 568.594 162.84 569.594 162.84C570.567 162.84 571.414 163.06 572.134 163.5C572.854 163.927 573.414 164.5 573.814 165.22C574.214 165.94 574.414 166.733 574.414 167.6C574.414 167.733 574.407 167.88 574.394 168.04C574.394 168.187 574.387 168.353 574.374 168.54H566.654C566.72 169.5 567.034 170.233 567.594 170.74C568.167 171.233 568.827 171.48 569.574 171.48C570.174 171.48 570.674 171.347 571.074 171.08C571.487 170.8 571.794 170.427 571.994 169.96H574.114C573.847 170.893 573.314 171.673 572.514 172.3C571.727 172.927 570.747 173.24 569.574 173.24ZM569.574 164.58C568.867 164.58 568.24 164.793 567.694 165.22C567.147 165.633 566.814 166.26 566.694 167.1H572.294C572.254 166.327 571.98 165.713 571.474 165.26C570.967 164.807 570.334 164.58 569.574 164.58ZM67.5 201C66.5267 201 65.7533 200.767 65.18 200.3C64.6067 199.82 64.32 198.973 64.32 197.76V192.86H62.62V191.08H64.32L64.58 188.56H66.44V191.08H69.24V192.86H66.44V197.76C66.44 198.307 66.5533 198.687 66.78 198.9C67.02 199.1 67.4267 199.2 68 199.2H69.14V201H67.5ZM76.312 201.24C75.3654 201.24 74.512 201.027 73.752 200.6C73.0054 200.16 72.412 199.553 71.972 198.78C71.532 197.993 71.312 197.08 71.312 196.04C71.312 195 71.532 194.093 71.972 193.32C72.4254 192.533 73.032 191.927 73.792 191.5C74.552 191.06 75.3987 190.84 76.332 190.84C77.2787 190.84 78.1254 191.06 78.872 191.5C79.632 191.927 80.232 192.533 80.672 193.32C81.1254 194.093 81.352 195 81.352 196.04C81.352 197.08 81.1254 197.993 80.672 198.78C80.232 199.553 79.632 200.16 78.872 200.6C78.112 201.027 77.2587 201.24 76.312 201.24ZM76.312 199.42C76.8187 199.42 77.2854 199.293 77.712 199.04C78.152 198.787 78.5054 198.413 78.772 197.92C79.0387 197.413 79.172 196.787 79.172 196.04C79.172 195.293 79.0387 194.673 78.772 194.18C78.5187 193.673 78.172 193.293 77.732 193.04C77.3054 192.787 76.8387 192.66 76.332 192.66C75.8254 192.66 75.352 192.787 74.912 193.04C74.4854 193.293 74.1387 193.673 73.872 194.18C73.6054 194.673 73.472 195.293 73.472 196.04C73.472 196.787 73.6054 197.413 73.872 197.92C74.1387 198.413 74.4854 198.787 74.912 199.04C75.3387 199.293 75.8054 199.42 76.312 199.42ZM88.7847 201.24C87.838 201.24 86.9847 201.027 86.2247 200.6C85.478 200.16 84.8847 199.553 84.4447 198.78C84.0047 197.993 83.7847 197.08 83.7847 196.04C83.7847 195 84.0047 194.093 84.4447 193.32C84.898 192.533 85.5047 191.927 86.2647 191.5C87.0247 191.06 87.8714 190.84 88.8047 190.84C89.7514 190.84 90.598 191.06 91.3447 191.5C92.1047 191.927 92.7047 192.533 93.1447 193.32C93.598 194.093 93.8247 195 93.8247 196.04C93.8247 197.08 93.598 197.993 93.1447 198.78C92.7047 199.553 92.1047 200.16 91.3447 200.6C90.5847 201.027 89.7314 201.24 88.7847 201.24ZM88.7847 199.42C89.2914 199.42 89.758 199.293 90.1847 199.04C90.6247 198.787 90.978 198.413 91.2447 197.92C91.5114 197.413 91.6447 196.787 91.6447 196.04C91.6447 195.293 91.5114 194.673 91.2447 194.18C90.9914 193.673 90.6447 193.293 90.2047 193.04C89.778 192.787 89.3114 192.66 88.8047 192.66C88.298 192.66 87.8247 192.787 87.3847 193.04C86.958 193.293 86.6114 193.673 86.3447 194.18C86.078 194.673 85.9447 195.293 85.9447 196.04C85.9447 196.787 86.078 197.413 86.3447 197.92C86.6114 198.413 86.958 198.787 87.3847 199.04C87.8114 199.293 88.278 199.42 88.7847 199.42ZM96.6173 201V186.6H98.7373V201H96.6173ZM105.882 201.24C104.629 201.24 103.595 200.933 102.782 200.32C101.969 199.707 101.502 198.893 101.382 197.88H103.522C103.629 198.333 103.882 198.727 104.282 199.06C104.682 199.38 105.209 199.54 105.862 199.54C106.502 199.54 106.969 199.407 107.262 199.14C107.555 198.873 107.702 198.567 107.702 198.22C107.702 197.713 107.495 197.373 107.082 197.2C106.682 197.013 106.122 196.847 105.402 196.7C104.842 196.58 104.282 196.42 103.722 196.22C103.175 196.02 102.715 195.74 102.342 195.38C101.982 195.007 101.802 194.507 101.802 193.88C101.802 193.013 102.135 192.293 102.802 191.72C103.469 191.133 104.402 190.84 105.602 190.84C106.709 190.84 107.602 191.107 108.282 191.64C108.975 192.173 109.382 192.927 109.502 193.9H107.462C107.395 193.473 107.195 193.14 106.862 192.9C106.542 192.66 106.109 192.54 105.562 192.54C105.029 192.54 104.615 192.653 104.322 192.88C104.029 193.093 103.882 193.373 103.882 193.72C103.882 194.067 104.082 194.34 104.482 194.54C104.895 194.74 105.435 194.92 106.102 195.08C106.769 195.227 107.382 195.4 107.942 195.6C108.515 195.787 108.975 196.067 109.322 196.44C109.669 196.813 109.842 197.36 109.842 198.08C109.855 198.987 109.502 199.74 108.782 200.34C108.075 200.94 107.109 201.24 105.882 201.24ZM122.355 201C121.382 201 120.609 200.767 120.035 200.3C119.462 199.82 119.175 198.973 119.175 197.76V192.86H117.475V191.08H119.175L119.435 188.56H121.295V191.08H124.095V192.86H121.295V197.76C121.295 198.307 121.409 198.687 121.635 198.9C121.875 199.1 122.282 199.2 122.855 199.2H123.995V201H122.355ZM131.168 201.24C130.221 201.24 129.368 201.027 128.608 200.6C127.861 200.16 127.268 199.553 126.828 198.78C126.388 197.993 126.168 197.08 126.168 196.04C126.168 195 126.388 194.093 126.828 193.32C127.281 192.533 127.888 191.927 128.648 191.5C129.408 191.06 130.254 190.84 131.188 190.84C132.134 190.84 132.981 191.06 133.728 191.5C134.488 191.927 135.088 192.533 135.528 193.32C135.981 194.093 136.207 195 136.207 196.04C136.207 197.08 135.981 197.993 135.528 198.78C135.088 199.553 134.488 200.16 133.728 200.6C132.968 201.027 132.114 201.24 131.168 201.24ZM131.168 199.42C131.674 199.42 132.141 199.293 132.568 199.04C133.008 198.787 133.361 198.413 133.628 197.92C133.894 197.413 134.028 196.787 134.028 196.04C134.028 195.293 133.894 194.673 133.628 194.18C133.374 193.673 133.028 193.293 132.588 193.04C132.161 192.787 131.694 192.66 131.188 192.66C130.681 192.66 130.208 192.787 129.768 193.04C129.341 193.293 128.994 193.673 128.728 194.18C128.461 194.673 128.328 195.293 128.328 196.04C128.328 196.787 128.461 197.413 128.728 197.92C128.994 198.413 129.341 198.787 129.768 199.04C130.194 199.293 130.661 199.42 131.168 199.42ZM144.539 201V191.08H146.419L146.599 192.48C146.919 191.973 147.339 191.573 147.859 191.28C148.393 190.987 149.006 190.84 149.699 190.84C151.273 190.84 152.366 191.46 152.979 192.7C153.339 192.127 153.819 191.673 154.419 191.34C155.033 191.007 155.693 190.84 156.399 190.84C157.639 190.84 158.613 191.213 159.319 191.96C160.026 192.707 160.379 193.82 160.379 195.3V201H158.259V195.52C158.259 193.6 157.526 192.64 156.059 192.64C155.313 192.64 154.699 192.92 154.219 193.48C153.753 194.04 153.519 194.84 153.519 195.88V201H151.399V195.52C151.399 193.6 150.659 192.64 149.179 192.64C148.446 192.64 147.839 192.92 147.359 193.48C146.893 194.04 146.659 194.84 146.659 195.88V201H144.539ZM166.72 201.24C165.88 201.24 165.186 201.1 164.64 200.82C164.093 200.54 163.686 200.173 163.42 199.72C163.153 199.253 163.02 198.747 163.02 198.2C163.02 197.24 163.393 196.48 164.14 195.92C164.886 195.36 165.953 195.08 167.34 195.08H169.94V194.9C169.94 194.127 169.726 193.547 169.3 193.16C168.886 192.773 168.346 192.58 167.68 192.58C167.093 192.58 166.58 192.727 166.14 193.02C165.713 193.3 165.453 193.72 165.36 194.28H163.24C163.306 193.56 163.546 192.947 163.96 192.44C164.386 191.92 164.92 191.527 165.56 191.26C166.213 190.98 166.926 190.84 167.7 190.84C169.086 190.84 170.16 191.207 170.92 191.94C171.68 192.66 172.06 193.647 172.06 194.9V201H170.22L170.04 199.3C169.76 199.847 169.353 200.307 168.82 200.68C168.286 201.053 167.586 201.24 166.72 201.24ZM167.14 199.52C167.713 199.52 168.193 199.387 168.58 199.12C168.98 198.84 169.286 198.473 169.5 198.02C169.726 197.567 169.866 197.067 169.92 196.52H167.56C166.72 196.52 166.12 196.667 165.76 196.96C165.413 197.253 165.24 197.62 165.24 198.06C165.24 198.513 165.406 198.873 165.74 199.14C166.086 199.393 166.553 199.52 167.14 199.52ZM175.031 201V191.08H176.911L177.071 192.82C177.378 192.207 177.825 191.727 178.411 191.38C179.011 191.02 179.698 190.84 180.471 190.84C181.671 190.84 182.611 191.213 183.291 191.96C183.985 192.707 184.331 193.82 184.331 195.3V201H182.231V195.52C182.231 193.6 181.445 192.64 179.871 192.64C179.085 192.64 178.431 192.92 177.911 193.48C177.405 194.04 177.151 194.84 177.151 195.88V201H175.031ZM190.688 201.24C189.848 201.24 189.155 201.1 188.608 200.82C188.062 200.54 187.655 200.173 187.388 199.72C187.122 199.253 186.988 198.747 186.988 198.2C186.988 197.24 187.362 196.48 188.108 195.92C188.855 195.36 189.922 195.08 191.308 195.08H193.908V194.9C193.908 194.127 193.695 193.547 193.268 193.16C192.855 192.773 192.315 192.58 191.648 192.58C191.062 192.58 190.548 192.727 190.108 193.02C189.682 193.3 189.422 193.72 189.328 194.28H187.208C187.275 193.56 187.515 192.947 187.928 192.44C188.355 191.92 188.888 191.527 189.528 191.26C190.182 190.98 190.895 190.84 191.668 190.84C193.055 190.84 194.128 191.207 194.888 191.94C195.648 192.66 196.028 193.647 196.028 194.9V201H194.188L194.008 199.3C193.728 199.847 193.322 200.307 192.788 200.68C192.255 201.053 191.555 201.24 190.688 201.24ZM191.108 199.52C191.682 199.52 192.162 199.387 192.548 199.12C192.948 198.84 193.255 198.473 193.468 198.02C193.695 197.567 193.835 197.067 193.888 196.52H191.528C190.688 196.52 190.088 196.667 189.728 196.96C189.382 197.253 189.208 197.62 189.208 198.06C189.208 198.513 189.375 198.873 189.708 199.14C190.055 199.393 190.522 199.52 191.108 199.52ZM203.06 197.96C202.54 197.96 202.06 197.9 201.62 197.78L200.76 198.62C200.907 198.713 201.087 198.793 201.3 198.86C201.513 198.927 201.813 198.987 202.2 199.04C202.587 199.093 203.113 199.147 203.78 199.2C205.1 199.32 206.053 199.64 206.64 200.16C207.227 200.667 207.52 201.347 207.52 202.2C207.52 202.787 207.36 203.34 207.04 203.86C206.733 204.393 206.247 204.82 205.58 205.14C204.927 205.473 204.087 205.64 203.06 205.64C201.673 205.64 200.547 205.373 199.68 204.84C198.827 204.32 198.4 203.527 198.4 202.46C198.4 202.047 198.507 201.633 198.72 201.22C198.947 200.82 199.3 200.44 199.78 200.08C199.5 199.96 199.253 199.833 199.04 199.7C198.84 199.553 198.66 199.407 198.5 199.26V198.78L200.22 197.02C199.447 196.353 199.06 195.48 199.06 194.4C199.06 193.747 199.213 193.153 199.52 192.62C199.84 192.073 200.3 191.64 200.9 191.32C201.5 191 202.22 190.84 203.06 190.84C203.62 190.84 204.14 190.92 204.62 191.08H208.32V192.48L206.56 192.58C206.88 193.127 207.04 193.733 207.04 194.4C207.04 195.067 206.88 195.667 206.56 196.2C206.253 196.733 205.8 197.16 205.2 197.48C204.613 197.8 203.9 197.96 203.06 197.96ZM203.06 196.3C203.673 196.3 204.167 196.14 204.54 195.82C204.927 195.487 205.12 195.02 205.12 194.42C205.12 193.807 204.927 193.34 204.54 193.02C204.167 192.7 203.673 192.54 203.06 192.54C202.433 192.54 201.927 192.7 201.54 193.02C201.167 193.34 200.98 193.807 200.98 194.42C200.98 195.02 201.167 195.487 201.54 195.82C201.927 196.14 202.433 196.3 203.06 196.3ZM200.4 202.26C200.4 202.833 200.653 203.26 201.16 203.54C201.667 203.833 202.3 203.98 203.06 203.98C203.793 203.98 204.387 203.82 204.84 203.5C205.293 203.193 205.52 202.78 205.52 202.26C205.52 201.873 205.367 201.54 205.06 201.26C204.753 200.993 204.173 200.827 203.32 200.76C202.68 200.72 202.113 200.66 201.62 200.58C201.153 200.833 200.833 201.107 200.66 201.4C200.487 201.693 200.4 201.98 200.4 202.26ZM214.96 201.24C213.987 201.24 213.12 201.027 212.36 200.6C211.614 200.16 211.027 199.553 210.6 198.78C210.174 198.007 209.96 197.107 209.96 196.08C209.96 195.04 210.167 194.127 210.58 193.34C211.007 192.553 211.594 191.94 212.34 191.5C213.1 191.06 213.98 190.84 214.98 190.84C215.954 190.84 216.8 191.06 217.52 191.5C218.24 191.927 218.8 192.5 219.2 193.22C219.6 193.94 219.8 194.733 219.8 195.6C219.8 195.733 219.794 195.88 219.78 196.04C219.78 196.187 219.774 196.353 219.76 196.54H212.04C212.107 197.5 212.42 198.233 212.98 198.74C213.554 199.233 214.214 199.48 214.96 199.48C215.56 199.48 216.06 199.347 216.46 199.08C216.874 198.8 217.18 198.427 217.38 197.96H219.5C219.234 198.893 218.7 199.673 217.9 200.3C217.114 200.927 216.134 201.24 214.96 201.24ZM214.96 192.58C214.254 192.58 213.627 192.793 213.08 193.22C212.534 193.633 212.2 194.26 212.08 195.1H217.68C217.64 194.327 217.367 193.713 216.86 193.26C216.354 192.807 215.72 192.58 214.96 192.58ZM231.399 201.24C230.559 201.24 229.866 201.1 229.319 200.82C228.773 200.54 228.366 200.173 228.099 199.72C227.833 199.253 227.699 198.747 227.699 198.2C227.699 197.24 228.073 196.48 228.819 195.92C229.566 195.36 230.633 195.08 232.019 195.08H234.619V194.9C234.619 194.127 234.406 193.547 233.979 193.16C233.566 192.773 233.026 192.58 232.359 192.58C231.773 192.58 231.259 192.727 230.819 193.02C230.393 193.3 230.133 193.72 230.039 194.28H227.919C227.986 193.56 228.226 192.947 228.639 192.44C229.066 191.92 229.599 191.527 230.239 191.26C230.893 190.98 231.606 190.84 232.379 190.84C233.766 190.84 234.839 191.207 235.599 191.94C236.359 192.66 236.739 193.647 236.739 194.9V201H234.899L234.719 199.3C234.439 199.847 234.033 200.307 233.499 200.68C232.966 201.053 232.266 201.24 231.399 201.24ZM231.819 199.52C232.393 199.52 232.873 199.387 233.259 199.12C233.659 198.84 233.966 198.473 234.179 198.02C234.406 197.567 234.546 197.067 234.599 196.52H232.239C231.399 196.52 230.799 196.667 230.439 196.96C230.093 197.253 229.919 197.62 229.919 198.06C229.919 198.513 230.086 198.873 230.419 199.14C230.766 199.393 231.233 199.52 231.819 199.52ZM239.711 201V191.08H241.591L241.751 192.82C242.058 192.207 242.504 191.727 243.091 191.38C243.691 191.02 244.378 190.84 245.151 190.84C246.351 190.84 247.291 191.213 247.971 191.96C248.664 192.707 249.011 193.82 249.011 195.3V201H246.911V195.52C246.911 193.6 246.124 192.64 244.551 192.64C243.764 192.64 243.111 192.92 242.591 193.48C242.084 194.04 241.831 194.84 241.831 195.88V201H239.711ZM256.528 201.24C255.568 201.24 254.721 201.013 253.988 200.56C253.255 200.107 252.681 199.487 252.268 198.7C251.855 197.913 251.648 197.02 251.648 196.02C251.648 195.02 251.855 194.133 252.268 193.36C252.681 192.573 253.255 191.96 253.988 191.52C254.735 191.067 255.588 190.84 256.548 190.84C257.335 190.84 258.021 190.993 258.608 191.3C259.208 191.607 259.675 192.04 260.008 192.6V186.6H262.128V201H260.228L260.008 199.46C259.688 199.927 259.248 200.34 258.688 200.7C258.128 201.06 257.408 201.24 256.528 201.24ZM256.908 199.4C257.815 199.4 258.555 199.087 259.128 198.46C259.715 197.833 260.008 197.027 260.008 196.04C260.008 195.04 259.715 194.233 259.128 193.62C258.555 192.993 257.815 192.68 256.908 192.68C256.001 192.68 255.255 192.993 254.668 193.62C254.081 194.233 253.788 195.04 253.788 196.04C253.788 196.693 253.921 197.273 254.188 197.78C254.455 198.287 254.821 198.687 255.288 198.98C255.768 199.26 256.308 199.4 256.908 199.4ZM274.8 201.24C273.547 201.24 272.513 200.933 271.7 200.32C270.887 199.707 270.42 198.893 270.3 197.88H272.44C272.547 198.333 272.8 198.727 273.2 199.06C273.6 199.38 274.127 199.54 274.78 199.54C275.42 199.54 275.887 199.407 276.18 199.14C276.473 198.873 276.62 198.567 276.62 198.22C276.62 197.713 276.413 197.373 276 197.2C275.6 197.013 275.04 196.847 274.32 196.7C273.76 196.58 273.2 196.42 272.64 196.22C272.093 196.02 271.633 195.74 271.26 195.38C270.9 195.007 270.72 194.507 270.72 193.88C270.72 193.013 271.053 192.293 271.72 191.72C272.387 191.133 273.32 190.84 274.52 190.84C275.627 190.84 276.52 191.107 277.2 191.64C277.893 192.173 278.3 192.927 278.42 193.9H276.38C276.313 193.473 276.113 193.14 275.78 192.9C275.46 192.66 275.027 192.54 274.48 192.54C273.947 192.54 273.533 192.653 273.24 192.88C272.947 193.093 272.8 193.373 272.8 193.72C272.8 194.067 273 194.34 273.4 194.54C273.813 194.74 274.353 194.92 275.02 195.08C275.687 195.227 276.3 195.4 276.86 195.6C277.433 195.787 277.893 196.067 278.24 196.44C278.587 196.813 278.76 197.36 278.76 198.08C278.773 198.987 278.42 199.74 277.7 200.34C276.993 200.94 276.027 201.24 274.8 201.24ZM286.214 201.24C285.241 201.24 284.374 201.027 283.614 200.6C282.868 200.16 282.281 199.553 281.854 198.78C281.428 198.007 281.214 197.107 281.214 196.08C281.214 195.04 281.421 194.127 281.834 193.34C282.261 192.553 282.848 191.94 283.594 191.5C284.354 191.06 285.234 190.84 286.234 190.84C287.208 190.84 288.054 191.06 288.774 191.5C289.494 191.927 290.054 192.5 290.454 193.22C290.854 193.94 291.054 194.733 291.054 195.6C291.054 195.733 291.048 195.88 291.034 196.04C291.034 196.187 291.028 196.353 291.014 196.54H283.294C283.361 197.5 283.674 198.233 284.234 198.74C284.808 199.233 285.468 199.48 286.214 199.48C286.814 199.48 287.314 199.347 287.714 199.08C288.128 198.8 288.434 198.427 288.634 197.96H290.754C290.488 198.893 289.954 199.673 289.154 200.3C288.368 200.927 287.388 201.24 286.214 201.24ZM286.214 192.58C285.508 192.58 284.881 192.793 284.334 193.22C283.788 193.633 283.454 194.26 283.334 195.1H288.934C288.894 194.327 288.621 193.713 288.114 193.26C287.608 192.807 286.974 192.58 286.214 192.58ZM298.454 201.24C297.481 201.24 296.607 201.02 295.834 200.58C295.074 200.14 294.474 199.533 294.034 198.76C293.607 197.973 293.394 197.067 293.394 196.04C293.394 195.013 293.607 194.113 294.034 193.34C294.474 192.553 295.074 191.94 295.834 191.5C296.607 191.06 297.481 190.84 298.454 190.84C299.681 190.84 300.707 191.16 301.534 191.8C302.374 192.44 302.914 193.307 303.154 194.4H300.934C300.801 193.853 300.507 193.427 300.054 193.12C299.601 192.813 299.067 192.66 298.454 192.66C297.934 192.66 297.454 192.793 297.014 193.06C296.574 193.313 296.221 193.693 295.954 194.2C295.687 194.693 295.554 195.307 295.554 196.04C295.554 196.773 295.687 197.393 295.954 197.9C296.221 198.393 296.574 198.773 297.014 199.04C297.454 199.307 297.934 199.44 298.454 199.44C299.067 199.44 299.601 199.287 300.054 198.98C300.507 198.673 300.801 198.24 300.934 197.68H303.154C302.927 198.747 302.394 199.607 301.554 200.26C300.714 200.913 299.681 201.24 298.454 201.24ZM309.613 201.24C308.413 201.24 307.467 200.867 306.773 200.12C306.093 199.373 305.753 198.26 305.753 196.78V191.08H307.873V196.56C307.873 198.48 308.66 199.44 310.233 199.44C311.02 199.44 311.667 199.16 312.173 198.6C312.68 198.04 312.933 197.24 312.933 196.2V191.08H315.053V201H313.173L313.013 199.26C312.707 199.873 312.253 200.36 311.653 200.72C311.067 201.067 310.387 201.24 309.613 201.24ZM318.25 201V191.08H320.15L320.33 192.96C320.677 192.307 321.157 191.793 321.77 191.42C322.397 191.033 323.15 190.84 324.03 190.84V193.06H323.45C322.863 193.06 322.337 193.16 321.87 193.36C321.417 193.547 321.05 193.873 320.77 194.34C320.503 194.793 320.37 195.427 320.37 196.24V201H318.25ZM330.714 201.24C329.741 201.24 328.874 201.027 328.114 200.6C327.368 200.16 326.781 199.553 326.354 198.78C325.928 198.007 325.714 197.107 325.714 196.08C325.714 195.04 325.921 194.127 326.334 193.34C326.761 192.553 327.348 191.94 328.094 191.5C328.854 191.06 329.734 190.84 330.734 190.84C331.708 190.84 332.554 191.06 333.274 191.5C333.994 191.927 334.554 192.5 334.954 193.22C335.354 193.94 335.554 194.733 335.554 195.6C335.554 195.733 335.548 195.88 335.534 196.04C335.534 196.187 335.528 196.353 335.514 196.54H327.794C327.861 197.5 328.174 198.233 328.734 198.74C329.308 199.233 329.968 199.48 330.714 199.48C331.314 199.48 331.814 199.347 332.214 199.08C332.628 198.8 332.934 198.427 333.134 197.96H335.254C334.988 198.893 334.454 199.673 333.654 200.3C332.868 200.927 331.888 201.24 330.714 201.24ZM330.714 192.58C330.008 192.58 329.381 192.793 328.834 193.22C328.288 193.633 327.954 194.26 327.834 195.1H333.434C333.394 194.327 333.121 193.713 332.614 193.26C332.108 192.807 331.474 192.58 330.714 192.58ZM347.953 201C346.98 201 346.206 200.767 345.633 200.3C345.06 199.82 344.773 198.973 344.773 197.76V192.86H343.073V191.08H344.773L345.033 188.56H346.893V191.08H349.693V192.86H346.893V197.76C346.893 198.307 347.006 198.687 347.233 198.9C347.473 199.1 347.88 199.2 348.453 199.2H349.593V201H347.953ZM352.379 201V186.6H354.499V192.68C354.832 192.107 355.292 191.66 355.879 191.34C356.479 191.007 357.139 190.84 357.859 190.84C359.046 190.84 359.979 191.213 360.659 191.96C361.339 192.707 361.679 193.82 361.679 195.3V201H359.579V195.52C359.579 193.6 358.812 192.64 357.279 192.64C356.479 192.64 355.812 192.92 355.279 193.48C354.759 194.04 354.499 194.84 354.499 195.88V201H352.379ZM369.316 201.24C368.343 201.24 367.476 201.027 366.716 200.6C365.969 200.16 365.383 199.553 364.956 198.78C364.529 198.007 364.316 197.107 364.316 196.08C364.316 195.04 364.523 194.127 364.936 193.34C365.363 192.553 365.949 191.94 366.696 191.5C367.456 191.06 368.336 190.84 369.336 190.84C370.309 190.84 371.156 191.06 371.876 191.5C372.596 191.927 373.156 192.5 373.556 193.22C373.956 193.94 374.156 194.733 374.156 195.6C374.156 195.733 374.149 195.88 374.136 196.04C374.136 196.187 374.129 196.353 374.116 196.54H366.396C366.463 197.5 366.776 198.233 367.336 198.74C367.909 199.233 368.569 199.48 369.316 199.48C369.916 199.48 370.416 199.347 370.816 199.08C371.229 198.8 371.536 198.427 371.736 197.96H373.856C373.589 198.893 373.056 199.673 372.256 200.3C371.469 200.927 370.489 201.24 369.316 201.24ZM369.316 192.58C368.609 192.58 367.983 192.793 367.436 193.22C366.889 193.633 366.556 194.26 366.436 195.1H372.036C371.996 194.327 371.723 193.713 371.216 193.26C370.709 192.807 370.076 192.58 369.316 192.58ZM378.056 189.2C377.656 189.2 377.322 189.08 377.056 188.84C376.802 188.587 376.676 188.273 376.676 187.9C376.676 187.527 376.802 187.22 377.056 186.98C377.322 186.727 377.656 186.6 378.056 186.6C378.456 186.6 378.782 186.727 379.036 186.98C379.302 187.22 379.436 187.527 379.436 187.9C379.436 188.273 379.302 188.587 379.036 188.84C378.782 189.08 378.456 189.2 378.056 189.2ZM376.996 201V191.08H379.116V201H376.996ZM382.414 201V191.08H384.314L384.494 192.96C384.841 192.307 385.321 191.793 385.934 191.42C386.561 191.033 387.314 190.84 388.194 190.84V193.06H387.614C387.028 193.06 386.501 193.16 386.034 193.36C385.581 193.547 385.214 193.873 384.934 194.34C384.668 194.793 384.534 195.427 384.534 196.24V201H382.414ZM397.251 189.2C396.851 189.2 396.518 189.08 396.251 188.84C395.998 188.587 395.871 188.273 395.871 187.9C395.871 187.527 395.998 187.22 396.251 186.98C396.518 186.727 396.851 186.6 397.251 186.6C397.651 186.6 397.978 186.727 398.231 186.98C398.498 187.22 398.631 187.527 398.631 187.9C398.631 188.273 398.498 188.587 398.231 188.84C397.978 189.08 397.651 189.2 397.251 189.2ZM396.191 201V191.08H398.311V201H396.191ZM401.61 201V191.08H403.49L403.65 192.82C403.956 192.207 404.403 191.727 404.99 191.38C405.59 191.02 406.276 190.84 407.05 190.84C408.25 190.84 409.19 191.213 409.87 191.96C410.563 192.707 410.91 193.82 410.91 195.3V201H408.81V195.52C408.81 193.6 408.023 192.64 406.45 192.64C405.663 192.64 405.01 192.92 404.49 193.48C403.983 194.04 403.73 194.84 403.73 195.88V201H401.61ZM414.406 201V192.86H412.986V191.08H414.406V189.64C414.406 188.56 414.673 187.787 415.206 187.32C415.753 186.84 416.52 186.6 417.506 186.6H418.546V188.4H417.826C417.36 188.4 417.026 188.5 416.826 188.7C416.626 188.887 416.526 189.207 416.526 189.66V191.08H418.806V192.86H416.526V201H414.406ZM425.57 201.24C424.623 201.24 423.77 201.027 423.01 200.6C422.263 200.16 421.67 199.553 421.23 198.78C420.79 197.993 420.57 197.08 420.57 196.04C420.57 195 420.79 194.093 421.23 193.32C421.683 192.533 422.29 191.927 423.05 191.5C423.81 191.06 424.657 190.84 425.59 190.84C426.537 190.84 427.383 191.06 428.13 191.5C428.89 191.927 429.49 192.533 429.93 193.32C430.383 194.093 430.61 195 430.61 196.04C430.61 197.08 430.383 197.993 429.93 198.78C429.49 199.553 428.89 200.16 428.13 200.6C427.37 201.027 426.517 201.24 425.57 201.24ZM425.57 199.42C426.077 199.42 426.543 199.293 426.97 199.04C427.41 198.787 427.763 198.413 428.03 197.92C428.297 197.413 428.43 196.787 428.43 196.04C428.43 195.293 428.297 194.673 428.03 194.18C427.777 193.673 427.43 193.293 426.99 193.04C426.563 192.787 426.097 192.66 425.59 192.66C425.083 192.66 424.61 192.787 424.17 193.04C423.743 193.293 423.397 193.673 423.13 194.18C422.863 194.673 422.73 195.293 422.73 196.04C422.73 196.787 422.863 197.413 423.13 197.92C423.397 198.413 423.743 198.787 424.17 199.04C424.597 199.293 425.063 199.42 425.57 199.42ZM433.403 201V191.08H435.303L435.483 192.96C435.829 192.307 436.309 191.793 436.923 191.42C437.549 191.033 438.303 190.84 439.183 190.84V193.06H438.603C438.016 193.06 437.489 193.16 437.023 193.36C436.569 193.547 436.203 193.873 435.923 194.34C435.656 194.793 435.523 195.427 435.523 196.24V201H433.403ZM441.5 201V191.08H443.38L443.56 192.48C443.88 191.973 444.3 191.573 444.82 191.28C445.353 190.987 445.967 190.84 446.66 190.84C448.233 190.84 449.327 191.46 449.94 192.7C450.3 192.127 450.78 191.673 451.38 191.34C451.993 191.007 452.653 190.84 453.36 190.84C454.6 190.84 455.573 191.213 456.28 191.96C456.987 192.707 457.34 193.82 457.34 195.3V201H455.22V195.52C455.22 193.6 454.487 192.64 453.02 192.64C452.273 192.64 451.66 192.92 451.18 193.48C450.713 194.04 450.48 194.84 450.48 195.88V201H448.36V195.52C448.36 193.6 447.62 192.64 446.14 192.64C445.407 192.64 444.8 192.92 444.32 193.48C443.853 194.04 443.62 194.84 443.62 195.88V201H441.5ZM463.68 201.24C462.84 201.24 462.147 201.1 461.6 200.82C461.054 200.54 460.647 200.173 460.38 199.72C460.114 199.253 459.98 198.747 459.98 198.2C459.98 197.24 460.354 196.48 461.1 195.92C461.847 195.36 462.914 195.08 464.3 195.08H466.9V194.9C466.9 194.127 466.687 193.547 466.26 193.16C465.847 192.773 465.307 192.58 464.64 192.58C464.054 192.58 463.54 192.727 463.1 193.02C462.674 193.3 462.414 193.72 462.32 194.28H460.2C460.267 193.56 460.507 192.947 460.92 192.44C461.347 191.92 461.88 191.527 462.52 191.26C463.174 190.98 463.887 190.84 464.66 190.84C466.047 190.84 467.12 191.207 467.88 191.94C468.64 192.66 469.02 193.647 469.02 194.9V201H467.18L467 199.3C466.72 199.847 466.314 200.307 465.78 200.68C465.247 201.053 464.547 201.24 463.68 201.24ZM464.1 199.52C464.674 199.52 465.154 199.387 465.54 199.12C465.94 198.84 466.247 198.473 466.46 198.02C466.687 197.567 466.827 197.067 466.88 196.52H464.52C463.68 196.52 463.08 196.667 462.72 196.96C462.374 197.253 462.2 197.62 462.2 198.06C462.2 198.513 462.367 198.873 462.7 199.14C463.047 199.393 463.514 199.52 464.1 199.52ZM475.957 201C474.984 201 474.21 200.767 473.637 200.3C473.064 199.82 472.777 198.973 472.777 197.76V192.86H471.077V191.08H472.777L473.037 188.56H474.897V191.08H477.697V192.86H474.897V197.76C474.897 198.307 475.01 198.687 475.237 198.9C475.477 199.1 475.884 199.2 476.457 199.2H477.597V201H475.957ZM481.583 189.2C481.183 189.2 480.85 189.08 480.583 188.84C480.33 188.587 480.203 188.273 480.203 187.9C480.203 187.527 480.33 187.22 480.583 186.98C480.85 186.727 481.183 186.6 481.583 186.6C481.983 186.6 482.31 186.727 482.563 186.98C482.83 187.22 482.963 187.527 482.963 187.9C482.963 188.273 482.83 188.587 482.563 188.84C482.31 189.08 481.983 189.2 481.583 189.2ZM480.523 201V191.08H482.643V201H480.523ZM490.582 201.24C489.635 201.24 488.782 201.027 488.022 200.6C487.275 200.16 486.682 199.553 486.242 198.78C485.802 197.993 485.582 197.08 485.582 196.04C485.582 195 485.802 194.093 486.242 193.32C486.695 192.533 487.302 191.927 488.062 191.5C488.822 191.06 489.668 190.84 490.602 190.84C491.548 190.84 492.395 191.06 493.142 191.5C493.902 191.927 494.502 192.533 494.942 193.32C495.395 194.093 495.622 195 495.622 196.04C495.622 197.08 495.395 197.993 494.942 198.78C494.502 199.553 493.902 200.16 493.142 200.6C492.382 201.027 491.528 201.24 490.582 201.24ZM490.582 199.42C491.088 199.42 491.555 199.293 491.982 199.04C492.422 198.787 492.775 198.413 493.042 197.92C493.308 197.413 493.442 196.787 493.442 196.04C493.442 195.293 493.308 194.673 493.042 194.18C492.788 193.673 492.442 193.293 492.002 193.04C491.575 192.787 491.108 192.66 490.602 192.66C490.095 192.66 489.622 192.787 489.182 193.04C488.755 193.293 488.408 193.673 488.142 194.18C487.875 194.673 487.742 195.293 487.742 196.04C487.742 196.787 487.875 197.413 488.142 197.92C488.408 198.413 488.755 198.787 489.182 199.04C489.608 199.293 490.075 199.42 490.582 199.42ZM498.414 201V191.08H500.294L500.454 192.82C500.761 192.207 501.208 191.727 501.794 191.38C502.394 191.02 503.081 190.84 503.854 190.84C505.054 190.84 505.994 191.213 506.674 191.96C507.368 192.707 507.714 193.82 507.714 195.3V201H505.614V195.52C505.614 193.6 504.828 192.64 503.254 192.64C502.468 192.64 501.814 192.92 501.294 193.48C500.788 194.04 500.534 194.84 500.534 195.88V201H498.414ZM511.551 201.12C511.151 201.12 510.818 200.993 510.551 200.74C510.298 200.473 510.171 200.16 510.171 199.8C510.171 199.427 510.298 199.113 510.551 198.86C510.818 198.593 511.151 198.46 511.551 198.46C511.951 198.46 512.278 198.593 512.531 198.86C512.784 199.113 512.911 199.427 512.911 199.8C512.911 200.16 512.784 200.473 512.531 200.74C512.278 200.993 511.951 201.12 511.551 201.12Z" fill="#010101" fill-opacity="0.7"/>
<path d="M69.128 99.216C67.868 99.216 66.764 98.94 65.816 98.388C64.88 97.836 64.142 97.074 63.602 96.102C63.074 95.118 62.81 93.984 62.81 92.7C62.81 91.416 63.074 90.288 63.602 89.316C64.142 88.332 64.88 87.564 65.816 87.012C66.764 86.46 67.868 86.184 69.128 86.184C70.376 86.184 71.474 86.46 72.422 87.012C73.37 87.564 74.108 88.332 74.636 89.316C75.164 90.288 75.428 91.416 75.428 92.7C75.428 93.984 75.164 95.118 74.636 96.102C74.108 97.074 73.37 97.836 72.422 98.388C71.474 98.94 70.376 99.216 69.128 99.216ZM69.128 97.146C70.328 97.146 71.282 96.75 71.99 95.958C72.71 95.166 73.07 94.08 73.07 92.7C73.07 91.32 72.71 90.234 71.99 89.442C71.282 88.65 70.328 88.254 69.128 88.254C67.928 88.254 66.968 88.65 66.248 89.442C65.528 90.234 65.168 91.32 65.168 92.7C65.168 94.08 65.528 95.166 66.248 95.958C66.968 96.75 67.928 97.146 69.128 97.146ZM84.6623 99.216C83.7383 99.216 82.9043 99.036 82.1603 98.676C81.4163 98.304 80.8223 97.746 80.3783 97.002C79.9463 96.258 79.7303 95.316 79.7303 94.176V86.4H82.0343V94.194C82.0343 95.178 82.2683 95.91 82.7363 96.39C83.2163 96.87 83.8763 97.11 84.7163 97.11C85.5443 97.11 86.1983 96.87 86.6783 96.39C87.1583 95.91 87.3983 95.178 87.3983 94.194V86.4H89.7023V94.176C89.7023 95.316 89.4743 96.258 89.0183 97.002C88.5623 97.746 87.9503 98.304 87.1823 98.676C86.4263 99.036 85.5863 99.216 84.6623 99.216ZM94.3942 99V86.4H99.0202C100.028 86.4 100.856 86.574 101.504 86.922C102.164 87.258 102.656 87.72 102.98 88.308C103.304 88.884 103.466 89.526 103.466 90.234C103.466 91.002 103.262 91.704 102.854 92.34C102.458 92.976 101.834 93.438 100.982 93.726L103.592 99H100.946L98.6062 94.032H96.6982V99H94.3942ZM96.6982 92.34H98.8762C99.6442 92.34 100.208 92.154 100.568 91.782C100.928 91.41 101.108 90.918 101.108 90.306C101.108 89.706 100.928 89.226 100.568 88.866C100.22 88.506 99.6502 88.326 98.8582 88.326H96.6982V92.34ZM120.086 99.216C118.898 99.216 117.86 98.946 116.972 98.406C116.084 97.866 115.394 97.116 114.902 96.156C114.41 95.184 114.164 94.056 114.164 92.772C114.164 91.476 114.416 90.336 114.92 89.352C115.436 88.356 116.162 87.582 117.098 87.03C118.046 86.466 119.168 86.184 120.464 86.184C121.94 86.184 123.164 86.538 124.136 87.246C125.108 87.954 125.738 88.932 126.026 90.18H123.452C123.26 89.592 122.912 89.136 122.408 88.812C121.904 88.476 121.256 88.308 120.464 88.308C119.204 88.308 118.232 88.71 117.548 89.514C116.864 90.306 116.522 91.398 116.522 92.79C116.522 94.182 116.858 95.262 117.53 96.03C118.214 96.786 119.138 97.164 120.302 97.164C121.442 97.164 122.3 96.858 122.876 96.246C123.464 95.622 123.818 94.806 123.938 93.798H120.752V92.07H126.26V99H124.136L123.956 97.344C123.548 97.944 123.038 98.406 122.426 98.73C121.814 99.054 121.034 99.216 120.086 99.216ZM136.744 99.216C135.484 99.216 134.38 98.94 133.432 98.388C132.496 97.836 131.758 97.074 131.218 96.102C130.69 95.118 130.426 93.984 130.426 92.7C130.426 91.416 130.69 90.288 131.218 89.316C131.758 88.332 132.496 87.564 133.432 87.012C134.38 86.46 135.484 86.184 136.744 86.184C137.992 86.184 139.09 86.46 140.038 87.012C140.986 87.564 141.724 88.332 142.252 89.316C142.78 90.288 143.044 91.416 143.044 92.7C143.044 93.984 142.78 95.118 142.252 96.102C141.724 97.074 140.986 97.836 140.038 98.388C139.09 98.94 137.992 99.216 136.744 99.216ZM136.744 97.146C137.944 97.146 138.898 96.75 139.606 95.958C140.326 95.166 140.686 94.08 140.686 92.7C140.686 91.32 140.326 90.234 139.606 89.442C138.898 88.65 137.944 88.254 136.744 88.254C135.544 88.254 134.584 88.65 133.864 89.442C133.144 90.234 132.784 91.32 132.784 92.7C132.784 94.08 133.144 95.166 133.864 95.958C134.584 96.75 135.544 97.146 136.744 97.146ZM145.8 99L150.408 86.4H153L157.608 99H155.16L154.152 96.084H149.238L148.212 99H145.8ZM149.868 94.284H153.522L151.686 89.046L149.868 94.284ZM161.571 99V86.4H163.875V97.2H169.455V99H161.571Z" fill="#252BE7"/>
</g>
<defs>
<filter id="filter0_d" x="0.0714302" y="1.54972e-06" width="670.857" height="279.857" filterUnits="userSpaceOnUse" color-interpolation-filters="sRGB">
<feFlood flood-opacity="0" result="BackgroundImageFix"/>
<feColorMatrix in="SourceAlpha" type="matrix" values="0 0 0 0 0 0 0 0 0 0 0 0 0 0 0 0 0 0 127 0"/>
<feOffset dy="1.92857"/>
<feGaussianBlur stdDeviation="14.4643"/>
<feColorMatrix type="matrix" values="0 0 0 0 0 0 0 0 0 0 0 0 0 0 0 0 0 0 0.15 0"/>
<feBlend mode="normal" in2="BackgroundImageFix" result="effect1_dropShadow"/>
<feBlend mode="normal" in="SourceGraphic" in2="effect1_dropShadow" result="shape"/>
</filter>
<filter id="filter1_b" x="12" y="27" width="647" height="239" filterUnits="userSpaceOnUse" color-interpolation-filters="sRGB">
<feFlood flood-opacity="0" result="BackgroundImageFix"/>
<feGaussianBlur in="BackgroundImage" stdDeviation="10"/>
<feComposite in2="SourceAlpha" operator="in" result="effect1_backgroundBlur"/>
<feBlend mode="normal" in="SourceGraphic" in2="effect1_backgroundBlur" result="shape"/>
</filter>
<filter id="filter2_b" x="5.28906" y="3.28906" width="660.422" height="72.4219" filterUnits="userSpaceOnUse" color-interpolation-filters="sRGB">
<feFlood flood-opacity="0" result="BackgroundImageFix"/>
<feGaussianBlur in="BackgroundImage" stdDeviation="11.8555"/>
<feComposite in2="SourceAlpha" operator="in" result="effect1_backgroundBlur"/>
<feBlend mode="normal" in="SourceGraphic" in2="effect1_backgroundBlur" result="shape"/>
</filter>
<linearGradient id="paint0_linear" x1="786.814" y1="-1.28198" x2="582.527" y2="479.784" gradientUnits="userSpaceOnUse">
<stop stop-color="white"/>
<stop offset="1" stop-color="white" stop-opacity="0"/>
</linearGradient>
</defs>
</svg>
