<svg width="194" height="193" viewBox="0 0 194 193" fill="none" xmlns="http://www.w3.org/2000/svg">
<g filter="url(#filter0_d)">
<circle cx="97" cy="94.5" r="67.5" fill="white"/>
</g>
<path d="M62.0913 94.2884L68.7154 90.5347L70.0402 89.4307L79.9764 90.5347L86.1589 96.0548L88.8086 105.991L91.0166 114.161L94.7703 118.577H86.1589H68.7154L60.7664 111.511L59 103.121L62.0913 94.2884Z" fill="#252BE7" fill-opacity="0.5"/>
<path d="M134.294 104.225C134.471 99.2787 126.713 95.5398 122.812 94.2886L119.059 105.991L113.759 112.836L105.369 118.356C109.343 118.43 117.955 118.533 120.604 118.356C123.916 118.135 128.332 117.694 130.761 115.707C133.19 113.719 134.073 110.407 134.294 104.225Z" fill="#252BE7" fill-opacity="0.2"/>
<path fill-rule="evenodd" clip-rule="evenodd" d="M105.178 74.7815C101.528 73.3348 97.543 72.9539 93.6855 73.6831C89.8279 74.4123 86.2565 76.2216 83.3868 78.9006C80.517 81.5796 78.4667 85.0183 77.4744 88.8167C77.4711 88.8291 77.4681 88.8415 77.4652 88.8539C78.3225 89.0737 79.1543 89.3646 79.9526 89.7212C79.9877 89.6471 80.0165 89.5687 80.038 89.4864C80.9035 86.1734 82.6918 83.1741 85.1949 80.8374C87.6979 78.5007 90.8129 76.9226 94.1776 76.2866C97.5423 75.6506 101.018 75.9829 104.202 77.2447C107.385 78.5065 110.145 80.6461 112.16 83.4146C112.59 84.0062 113.419 84.1367 114.01 83.7061C114.602 83.2755 114.733 82.4469 114.302 81.8553C111.992 78.6812 108.828 76.2282 105.178 74.7815ZM86.1638 94.7615C85.6353 94.0298 85.0454 93.3501 84.4029 92.7281C84.5141 92.5878 84.6235 92.4447 84.7311 92.299L84.7316 92.2983C85.0041 91.93 85.2705 91.567 85.5322 91.2104C87.2428 88.8797 88.7502 86.826 90.419 85.3655C92.4529 83.5855 94.7572 82.6424 97.9701 82.7843L97.9796 82.7847L97.9796 82.7847C100.844 82.9318 103.547 84.156 105.547 86.2121C107.539 88.2606 108.687 90.9841 108.762 93.8401C109.155 99.5928 105.149 104.613 100.061 107.654C99.4329 108.029 98.6195 107.824 98.2441 107.196C97.8688 106.568 98.0737 105.755 98.7017 105.38C103.371 102.589 106.426 98.3483 106.117 93.9965L106.115 93.9652L106.114 93.9339C106.062 91.7347 105.181 89.6364 103.647 88.0595C102.115 86.4837 100.044 85.545 97.8485 85.4312C95.3424 85.3215 93.7009 86.0144 92.164 87.3594C90.7316 88.6129 89.4204 90.3963 87.6783 92.7659L87.6779 92.7665C87.4163 93.1222 87.1451 93.4911 86.8623 93.8734C86.6361 94.1796 86.4034 94.4756 86.1638 94.7615ZM88.3851 99.2455C88.1034 98.3138 87.7305 97.4067 87.2692 96.5374C87.9821 95.7178 88.6473 94.8501 89.3181 93.9752L89.3183 93.9749C89.5044 93.7322 89.6909 93.4889 89.879 93.2459L89.8805 93.244C90.1102 92.9484 90.3349 92.6527 90.5566 92.3612C91.4057 91.2443 92.2094 90.1871 93.071 89.4195L91.9728 94.8697C91.7788 95.1203 91.5825 95.3776 91.3826 95.6398L91.3823 95.6402C90.4958 96.8026 89.537 98.0597 88.3851 99.2455ZM93.071 89.4195L91.9729 94.8696C92.2631 94.4961 92.5262 94.1508 92.7697 93.8313L92.7697 93.8313C93.5859 92.7603 94.1813 91.979 94.8335 91.398C95.5593 90.7515 96.2876 90.4255 97.4818 90.4782C98.5361 90.5277 99.5907 91.0373 100.35 91.8297C101.106 92.6189 101.489 93.5994 101.386 94.5571C101.301 95.3289 101.155 95.8348 100.82 96.4455C100.451 97.1185 99.8467 97.9308 98.7587 99.294C98.3022 99.8659 98.3958 100.699 98.9676 101.156C99.5395 101.612 100.373 101.519 100.83 100.947C101.898 99.608 102.648 98.6239 103.144 97.7195C103.674 96.7528 103.904 95.9 104.02 94.8451L104.02 94.8438C104.224 92.964 103.452 91.2379 102.263 89.9969C101.078 88.7592 99.3985 87.9148 97.6033 87.8314L97.6005 87.8312C95.6712 87.7456 94.2784 88.344 93.071 89.4195ZM99.374 77.8931C98.7372 77.819 98.0966 77.7821 97.4555 77.7825L97.4544 77.7825C94.0717 77.7826 90.7728 78.8349 88.015 80.7937C85.2568 82.7526 83.1764 85.5212 82.0622 88.7155C81.8212 89.4063 82.1859 90.1617 82.8767 90.4027C83.5676 90.6437 84.323 90.279 84.564 89.5881C85.4971 86.913 87.2394 84.5945 89.5492 82.9539C91.8591 81.3134 94.6222 80.432 97.4553 80.4322H97.4564C97.9949 80.4318 98.5329 80.4627 99.0678 80.525C99.7946 80.6095 100.452 80.0889 100.537 79.3621C100.621 78.6353 100.101 77.9776 99.374 77.8931ZM104.857 79.5565C104.205 79.2242 103.408 79.4832 103.075 80.1351C102.743 80.787 103.002 81.5848 103.654 81.9171C105.429 82.8222 106.985 84.1049 108.212 85.6752C109.438 87.2455 110.307 89.0653 110.755 91.0069C111.204 92.9484 111.222 94.9646 110.808 96.9139C110.395 98.8633 109.559 100.698 108.361 102.291C107.921 102.875 108.038 103.706 108.623 104.146C109.207 104.586 110.038 104.469 110.478 103.884C111.909 101.983 112.906 99.7915 113.4 97.4639C113.894 95.1363 113.872 92.7288 113.337 90.4104C112.801 88.092 111.764 85.919 110.3 84.0439C108.835 82.1689 106.977 80.6372 104.857 79.5565ZM116.674 86.0504C116.39 85.3758 115.614 85.0587 114.939 85.3421C114.265 85.6255 113.947 86.402 114.231 87.0766C115.386 89.8262 115.843 92.8188 115.562 95.7878C115.28 98.7569 114.269 101.61 112.618 104.094C110.967 106.578 108.727 108.614 106.099 110.023C103.47 111.432 100.534 112.168 97.5513 112.168C96.8197 112.167 96.2263 112.76 96.2262 113.492C96.226 114.224 96.8189 114.817 97.5506 114.817C100.97 114.818 104.336 113.974 107.35 112.359C110.364 110.744 112.932 108.408 114.825 105.561C116.718 102.713 117.877 99.4419 118.2 96.0378C118.522 92.6338 117.998 89.2028 116.674 86.0504Z" fill="#252BE7"/>
<path d="M74.0587 89.4308C74.9778 84.9281 77.1555 80.7786 80.3387 77.4641C83.522 74.1496 87.5803 71.8063 92.0422 70.7062C96.5041 69.6061 101.187 69.7944 105.546 71.2493C109.905 72.7041 113.762 75.3658 116.669 78.9252C119.575 82.4846 121.413 86.7956 121.967 91.3575C122.522 95.9194 121.771 100.545 119.802 104.697C117.832 108.849 114.725 112.358 110.842 114.814C106.958 117.271 102.457 118.576 97.8614 118.577" stroke="#252BE7" stroke-width="2.64965"/>
<path d="M122.15 94.2884C125.371 94.2884 128.46 95.5678 130.737 97.8453C133.015 100.123 134.294 103.212 134.294 106.433C134.294 109.653 133.015 112.742 130.737 115.02C128.46 117.297 125.371 118.577 122.15 118.577H73.5731C69.7081 118.577 66.0013 117.041 63.2684 114.308C60.5354 111.575 59 107.869 59 104.004C59 100.139 60.5354 96.432 63.2684 93.699C66.0013 90.966 69.7081 89.4307 73.5731 89.4307C80.598 89.4307 86.122 93.699 87.9253 102.458C89.471 109.965 90.575 119.018 98.0823 118.577" stroke="#252BE7" stroke-width="2.64965" stroke-linecap="round"/>
<defs>
<filter id="filter0_d" x="0.57143" y="1.54972e-06" width="192.857" height="192.857" filterUnits="userSpaceOnUse" color-interpolation-filters="sRGB">
<feFlood flood-opacity="0" result="BackgroundImageFix"/>
<feColorMatrix in="SourceAlpha" type="matrix" values="0 0 0 0 0 0 0 0 0 0 0 0 0 0 0 0 0 0 127 0"/>
<feOffset dy="1.92857"/>
<feGaussianBlur stdDeviation="14.4643"/>
<feColorMatrix type="matrix" values="0 0 0 0 0 0 0 0 0 0 0 0 0 0 0 0 0 0 0.15 0"/>
<feBlend mode="normal" in2="BackgroundImageFix" result="effect1_dropShadow"/>
<feBlend mode="normal" in="SourceGraphic" in2="effect1_dropShadow" result="shape"/>
</filter>
</defs>
</svg>
