<svg width="170" height="37" viewBox="0 0 170 37" fill="none" xmlns="http://www.w3.org/2000/svg">
<path d="M2.2087 18.497L4.79876 17.0293L5.31677 16.5977L9.20187 17.0293L11.6193 19.1877L12.6553 23.0728L13.5186 26.2672L14.9863 27.9939H11.6193H4.79876L1.69068 25.2312L1 21.9505L2.2087 18.497Z" fill="#252BE7" fill-opacity="0.5"/>
<path d="M30.4403 22.3809C30.5094 20.447 27.4761 18.9851 25.9509 18.4958L24.4832 23.0716L22.4111 25.748L19.1304 27.9064C20.6844 27.9352 24.0515 27.9755 25.0875 27.9064C26.3826 27.8201 28.1093 27.6474 29.059 26.8704C30.0086 26.0934 30.354 24.7983 30.4403 22.3809Z" fill="#252BE7" fill-opacity="0.2"/>
<path d="M6.88916 16.5975C7.24853 14.837 8.1 13.2145 9.34468 11.9185C10.5894 10.6225 12.1762 9.70627 13.9208 9.27612C15.6654 8.84598 17.4963 8.91961 19.2007 9.48847C20.9052 10.0573 22.4133 11.098 23.5498 12.4898C24.6864 13.8815 25.4049 15.5671 25.6217 17.3509C25.8385 19.1346 25.5449 20.9433 24.7748 22.5668C24.0048 24.1903 22.7899 25.562 21.2714 26.5227C19.7529 27.4833 17.993 27.9934 16.1961 27.9938" stroke="#252BE7" stroke-width="1.80953"/>
<path d="M25.6919 18.497C26.9513 18.497 28.1591 18.9973 29.0496 19.8878C29.9401 20.7783 30.4404 21.9861 30.4404 23.2455C30.4404 24.5049 29.9401 25.7126 29.0496 26.6031C28.1591 27.4937 26.9513 27.9939 25.6919 27.9939H6.69814C5.1869 27.9939 3.73756 27.3936 2.66895 26.325C1.60034 25.2564 1 23.807 1 22.2958C1 20.7846 1.60034 19.3352 2.66895 18.2666C3.73756 17.198 5.1869 16.5977 6.69814 16.5977C9.44494 16.5977 11.6048 18.2666 12.3099 21.6914C12.9143 24.6269 13.346 28.1666 16.2814 27.9939" stroke="#252BE7" stroke-width="1.80953" stroke-linecap="round"/>
<path d="M41.56 27V9.72H44.632V16.92C45.032 16.264 45.568 15.752 46.24 15.384C46.928 15 47.712 14.808 48.592 14.808C50.064 14.808 51.2 15.272 52 16.2C52.816 17.128 53.224 18.488 53.224 20.28V27H50.176V20.568C50.176 19.544 49.968 18.76 49.552 18.216C49.152 17.672 48.512 17.4 47.632 17.4C46.768 17.4 46.048 17.704 45.472 18.312C44.912 18.92 44.632 19.768 44.632 20.856V27H41.56ZM61.8736 27.288C60.7216 27.288 59.6816 27.024 58.7536 26.496C57.8416 25.968 57.1136 25.24 56.5696 24.312C56.0416 23.368 55.7776 22.28 55.7776 21.048C55.7776 19.816 56.0496 18.736 56.5936 17.808C57.1376 16.864 57.8656 16.128 58.7776 15.6C59.7056 15.072 60.7456 14.808 61.8976 14.808C63.0336 14.808 64.0576 15.072 64.9696 15.6C65.8976 16.128 66.6256 16.864 67.1536 17.808C67.6976 18.736 67.9696 19.816 67.9696 21.048C67.9696 22.28 67.6976 23.368 67.1536 24.312C66.6256 25.24 65.8976 25.968 64.9696 26.496C64.0416 27.024 63.0096 27.288 61.8736 27.288ZM61.8736 24.624C62.6736 24.624 63.3696 24.328 63.9616 23.736C64.5536 23.128 64.8496 22.232 64.8496 21.048C64.8496 19.864 64.5536 18.976 63.9616 18.384C63.3696 17.776 62.6816 17.472 61.8976 17.472C61.0816 17.472 60.3776 17.776 59.7856 18.384C59.2096 18.976 58.9216 19.864 58.9216 21.048C58.9216 22.232 59.2096 23.128 59.7856 23.736C60.3776 24.328 61.0736 24.624 61.8736 24.624ZM70.7163 27V9.72H73.7883V27H70.7163ZM82.6392 27.288C81.4872 27.288 80.4472 27.024 79.5192 26.496C78.6072 25.968 77.8792 25.24 77.3352 24.312C76.8072 23.368 76.5432 22.28 76.5432 21.048C76.5432 19.816 76.8152 18.736 77.3592 17.808C77.9032 16.864 78.6312 16.128 79.5432 15.6C80.4712 15.072 81.5112 14.808 82.6632 14.808C83.7992 14.808 84.8232 15.072 85.7352 15.6C86.6632 16.128 87.3912 16.864 87.9192 17.808C88.4632 18.736 88.7352 19.816 88.7352 21.048C88.7352 22.28 88.4632 23.368 87.9192 24.312C87.3912 25.24 86.6632 25.968 85.7352 26.496C84.8072 27.024 83.7752 27.288 82.6392 27.288ZM82.6392 24.624C83.4392 24.624 84.1352 24.328 84.7272 23.736C85.3192 23.128 85.6152 22.232 85.6152 21.048C85.6152 19.864 85.3192 18.976 84.7272 18.384C84.1352 17.776 83.4472 17.472 82.6632 17.472C81.8472 17.472 81.1432 17.776 80.5512 18.384C79.9752 18.976 79.6872 19.864 79.6872 21.048C79.6872 22.232 79.9752 23.128 80.5512 23.736C81.1432 24.328 81.8392 24.624 82.6392 24.624ZM91.2179 21.336V18.768H101.274V21.336H91.2179ZM109.97 27.288C108.754 27.288 107.682 27.024 106.754 26.496C105.826 25.968 105.09 25.232 104.546 24.288C104.018 23.344 103.754 22.264 103.754 21.048C103.754 19.832 104.018 18.752 104.546 17.808C105.09 16.864 105.826 16.128 106.754 15.6C107.682 15.072 108.754 14.808 109.97 14.808C111.49 14.808 112.77 15.208 113.81 16.008C114.85 16.792 115.514 17.88 115.802 19.272H112.562C112.402 18.696 112.082 18.248 111.602 17.928C111.138 17.592 110.586 17.424 109.946 17.424C109.098 17.424 108.378 17.744 107.786 18.384C107.194 19.024 106.898 19.912 106.898 21.048C106.898 22.184 107.194 23.072 107.786 23.712C108.378 24.352 109.098 24.672 109.946 24.672C110.586 24.672 111.138 24.512 111.602 24.192C112.082 23.872 112.402 23.416 112.562 22.824H115.802C115.514 24.168 114.85 25.248 113.81 26.064C112.77 26.88 111.49 27.288 109.97 27.288ZM118.529 27V9.72H121.601V27H118.529ZM130.452 27.288C129.3 27.288 128.26 27.024 127.332 26.496C126.42 25.968 125.692 25.24 125.148 24.312C124.62 23.368 124.356 22.28 124.356 21.048C124.356 19.816 124.628 18.736 125.172 17.808C125.716 16.864 126.444 16.128 127.356 15.6C128.284 15.072 129.324 14.808 130.476 14.808C131.612 14.808 132.636 15.072 133.548 15.6C134.476 16.128 135.204 16.864 135.732 17.808C136.276 18.736 136.548 19.816 136.548 21.048C136.548 22.28 136.276 23.368 135.732 24.312C135.204 25.24 134.476 25.968 133.548 26.496C132.62 27.024 131.588 27.288 130.452 27.288ZM130.452 24.624C131.252 24.624 131.948 24.328 132.54 23.736C133.132 23.128 133.428 22.232 133.428 21.048C133.428 19.864 133.132 18.976 132.54 18.384C131.948 17.776 131.26 17.472 130.476 17.472C129.66 17.472 128.956 17.776 128.364 18.384C127.788 18.976 127.5 19.864 127.5 21.048C127.5 22.232 127.788 23.128 128.364 23.736C128.956 24.328 129.652 24.624 130.452 24.624ZM143.758 27.288C142.27 27.288 141.118 26.824 140.302 25.896C139.502 24.968 139.102 23.608 139.102 21.816V15.096H142.15V21.528C142.15 22.552 142.358 23.336 142.774 23.88C143.19 24.424 143.846 24.696 144.742 24.696C145.59 24.696 146.286 24.392 146.83 23.784C147.39 23.176 147.67 22.328 147.67 21.24V15.096H150.742V27H148.03L147.79 24.984C147.422 25.688 146.886 26.248 146.182 26.664C145.494 27.08 144.686 27.288 143.758 27.288ZM159.368 27.288C158.248 27.288 157.248 27.016 156.368 26.472C155.488 25.928 154.792 25.184 154.28 24.24C153.768 23.296 153.512 22.224 153.512 21.024C153.512 19.824 153.768 18.76 154.28 17.832C154.792 16.888 155.488 16.152 156.368 15.624C157.248 15.08 158.248 14.808 159.368 14.808C160.264 14.808 161.048 14.976 161.72 15.312C162.392 15.648 162.936 16.12 163.352 16.728V9.72H166.424V27H163.688L163.352 25.296C162.968 25.824 162.456 26.288 161.816 26.688C161.192 27.088 160.376 27.288 159.368 27.288ZM160.016 24.6C161.008 24.6 161.816 24.272 162.44 23.616C163.08 22.944 163.4 22.088 163.4 21.048C163.4 20.008 163.08 19.16 162.44 18.504C161.816 17.832 161.008 17.496 160.016 17.496C159.04 17.496 158.232 17.824 157.592 18.48C156.952 19.136 156.632 19.984 156.632 21.024C156.632 22.064 156.952 22.92 157.592 23.592C158.232 24.264 159.04 24.6 160.016 24.6Z" fill="#181F27"/>
</svg>
